<svg width="400" height="219" viewBox="0 0 400 219" fill="none" xmlns="http://www.w3.org/2000/svg">
<rect width="400" height="219" fill="#E5E5E5"/>
<g clip-path="url(#clip0)">
<rect width="400" height="218.1" fill="white"/>
<path d="M437.972 143.487C437.768 143.281 437.342 142.984 437.024 142.827C436.705 142.671 436.445 142.45 436.444 142.34C436.444 142.228 436.307 142.132 436.142 142.124C435.977 142.116 435.608 141.936 435.323 141.725C434.759 141.303 432.647 140.063 431.016 139.191C430.447 138.889 429.439 138.338 428.776 137.967C427.358 137.177 426.126 136.646 425.713 136.648C425.551 136.648 425.417 136.579 425.417 136.493C425.417 136.407 424.894 136.172 424.254 135.97C423.615 135.768 422.976 135.533 422.834 135.448C422.692 135.362 421.955 135.133 421.198 134.938C420.44 134.741 419.666 134.501 419.476 134.402C419.287 134.303 418.667 134.131 418.1 134.02C417.532 133.909 416.5 133.684 415.807 133.521C414.366 133.179 411.003 132.675 408.979 132.496C408.222 132.429 407.293 132.342 406.914 132.303C402.074 131.797 392.01 132.409 385.852 133.585C384.954 133.757 383.7 133.991 383.065 134.105C382.43 134.217 381.824 134.374 381.72 134.452C381.616 134.53 381.052 134.678 380.469 134.782C378.815 135.076 377.79 135.308 376.486 135.687C375.825 135.879 374.897 136.12 374.424 136.223C373.952 136.325 373.411 136.494 373.222 136.599C373.033 136.704 372.414 136.901 371.847 137.037C371.28 137.173 370.469 137.411 370.043 137.566C369.619 137.721 368.923 137.954 368.497 138.084C368.073 138.215 367.471 138.451 367.161 138.611C366.851 138.77 366.411 138.901 366.184 138.902C365.956 138.902 365.727 138.984 365.676 139.085C365.624 139.185 365.291 139.332 364.937 139.413C364.582 139.493 364.214 139.62 364.12 139.692C364.024 139.765 363.483 139.981 362.916 140.171C361.823 140.537 360.165 141.235 359.31 141.689C359.026 141.839 358.369 142.123 357.85 142.319C357.33 142.516 356.832 142.756 356.742 142.854C356.653 142.95 356.473 143.029 356.343 143.029C356.092 143.03 354.309 143.831 353.087 144.492C352.686 144.709 352.312 144.886 352.255 144.886C352.197 144.886 351.906 145.017 351.609 145.176C349.478 146.314 349.024 146.535 348.815 146.536C348.684 146.537 348.578 146.623 348.578 146.727C348.579 146.833 348.405 146.977 348.192 147.049C347.288 147.353 345.935 148.09 341.984 150.426C339.993 151.604 337.272 153.294 335.936 154.183C334.599 155.072 333.422 155.801 333.318 155.801C333.216 155.802 333.132 155.888 333.132 155.992C333.133 156.098 332.963 156.248 332.755 156.328C332.547 156.407 332.271 156.598 332.142 156.754C332.013 156.908 331.797 157.035 331.661 157.035C331.526 157.036 331.416 157.122 331.416 157.228C331.417 157.332 331.147 157.536 330.816 157.679C330.486 157.823 330.216 158.014 330.216 158.104C330.217 158.195 330.107 158.269 329.971 158.269C329.836 158.27 329.62 158.385 329.491 158.527C329.15 158.901 328.629 159.292 328.286 159.431C328.12 159.497 327.986 159.633 327.986 159.733C327.986 159.832 327.906 159.914 327.808 159.914C327.709 159.914 327.42 160.087 327.165 160.298C326.908 160.509 326.313 160.969 325.842 161.321C325.37 161.673 324.907 162.037 324.813 162.13C324.718 162.223 324.374 162.481 324.046 162.7C323.719 162.921 323.299 163.264 323.113 163.461C322.928 163.659 322.725 163.821 322.662 163.822C322.6 163.822 322.364 164.015 322.138 164.252C321.911 164.489 321.244 165.063 320.654 165.528C320.064 165.995 319.582 166.447 319.582 166.537C319.583 166.625 319.474 166.698 319.339 166.699C319.205 166.699 319.07 166.768 319.04 166.853C319.008 166.938 318.636 167.282 318.211 167.617C317.363 168.287 317.137 168.494 316.486 169.202C316.244 169.464 315.85 169.803 315.609 169.955C315.368 170.107 314.971 170.455 314.726 170.726C314.483 170.997 314.243 171.22 314.195 171.22C314.147 171.22 313.878 171.474 313.597 171.785C312.881 172.577 312.583 172.863 312.473 172.863C312.392 172.864 311.598 173.698 310.472 174.968C310.298 175.166 310.112 175.328 310.06 175.328C310.008 175.328 309.796 175.538 309.589 175.794C309.381 176.05 308.713 176.767 308.103 177.386C307.495 178.005 306.704 178.858 306.347 179.281C305.991 179.705 305.67 180.051 305.633 180.051C305.497 180.052 300.732 185.804 300.733 185.968C300.733 186.063 300.559 186.256 300.347 186.398C300.135 186.54 299.703 187.04 299.387 187.511C299.072 187.981 298.317 189.011 297.709 189.802C296.032 191.983 295.725 192.405 295.176 193.293C294.897 193.743 294.585 194.204 294.482 194.317C294.378 194.429 294.071 194.891 293.799 195.343C293.527 195.794 293.257 196.209 293.198 196.266C293.141 196.322 292.833 196.829 292.516 197.394C292.199 197.958 291.801 198.569 291.629 198.752C291.459 198.934 291.319 199.188 291.32 199.316C291.32 199.443 291.248 199.548 291.161 199.548C291.072 199.549 290.956 199.716 290.902 199.923C290.848 200.128 290.659 200.481 290.484 200.708C290.144 201.145 289.352 202.524 288.927 203.419C288.786 203.715 288.613 203.989 288.543 204.026C288.474 204.063 288.285 204.432 288.126 204.846C287.966 205.259 287.734 205.672 287.611 205.763C287.488 205.853 287.388 206.017 287.388 206.126C287.389 206.367 286.501 208.032 286.32 208.128C286.25 208.165 286.192 208.368 286.193 208.577C286.193 208.786 286.115 209.017 286.016 209.088C285.918 209.161 285.661 209.651 285.443 210.177C285.226 210.704 284.703 211.919 284.28 212.877C282.545 216.815 281.928 218.377 281.929 218.829C281.93 219.036 281.864 219.256 281.783 219.315C281.703 219.376 281.386 220.234 281.08 221.224C280.775 222.213 280.457 223.11 280.375 223.217C280.293 223.324 280.226 223.58 280.226 223.784C280.227 223.988 280.15 224.315 280.056 224.512C279.789 225.06 279.237 227.395 279.343 227.521C279.395 227.582 315.256 227.508 359.033 227.356L438.63 227.08L438.485 185.469L438.341 143.86L437.972 143.487Z" fill="url(#paint0_linear)"/>
<path d="M334.485 -3.63266C334.279 -3.42938 333.981 -3.00425 333.822 -2.68644C333.665 -2.36863 333.444 -2.1086 333.333 -2.1086C333.222 -2.1086 333.125 -1.97239 333.116 -1.80729C333.107 -1.64219 332.927 -1.27382 332.714 -0.990057C332.291 -0.42666 331.043 1.6804 330.166 3.30868C329.861 3.87621 329.307 4.88227 328.934 5.54473C328.139 6.95941 327.604 8.18939 327.604 8.60317C327.604 8.76517 327.534 8.89828 327.448 8.89828C327.362 8.89828 327.125 9.4204 326.921 10.0591C326.717 10.6978 326.48 11.3355 326.394 11.4779C326.308 11.6193 326.076 12.355 325.878 13.1114C325.679 13.8688 325.436 14.6427 325.337 14.8315C325.237 15.0203 325.063 15.6394 324.95 16.207C324.837 16.7745 324.608 17.8053 324.443 18.4977C324.096 19.9371 323.58 23.299 323.394 25.3224C323.325 26.0788 323.234 27.0075 323.194 27.3862C322.672 32.2246 323.249 42.2904 324.403 48.4527C324.572 49.3514 324.801 50.6062 324.913 51.2418C325.024 51.8774 325.178 52.4831 325.256 52.5873C325.333 52.6926 325.479 53.257 325.581 53.84C325.87 55.4951 326.098 56.5208 326.473 57.8261C326.662 58.4875 326.9 59.4162 327.001 59.8898C327.102 60.3624 327.269 60.9042 327.373 61.093C327.477 61.2828 327.673 61.902 327.807 62.4695C327.94 63.037 328.175 63.8491 328.329 64.2752C328.482 64.7004 328.713 65.3969 328.842 65.823C328.971 66.2482 329.205 66.8508 329.364 67.1614C329.522 67.472 329.651 67.9126 329.651 68.1396C329.651 68.3676 329.732 68.5967 329.833 68.6483C329.933 68.6999 330.079 69.0332 330.159 69.3881C330.237 69.7431 330.362 70.1115 330.435 70.2064C330.507 70.3024 330.721 70.8441 330.909 71.4116C331.271 72.5054 331.964 74.1667 332.415 75.0231C332.563 75.3069 332.846 75.9652 333.04 76.4853C333.235 77.0053 333.473 77.5048 333.57 77.5945C333.666 77.6843 333.745 77.8649 333.745 77.9949C333.745 78.2456 334.539 80.0308 335.197 81.2556C335.411 81.657 335.587 82.0315 335.587 82.0893C335.587 82.1471 335.717 82.4381 335.875 82.7363C337.006 84.8712 337.225 85.3252 337.225 85.5347C337.225 85.6658 337.311 85.772 337.416 85.772C337.521 85.772 337.665 85.9464 337.736 86.159C338.037 87.0639 338.769 88.4198 341.092 92.3791C342.262 94.3736 343.944 97.1009 344.828 98.4402C345.712 99.7806 346.437 100.96 346.437 101.063C346.437 101.165 346.523 101.25 346.627 101.25C346.733 101.25 346.883 101.42 346.961 101.629C347.04 101.837 347.23 102.114 347.385 102.243C347.539 102.373 347.665 102.589 347.665 102.725C347.665 102.86 347.751 102.97 347.857 102.97C347.961 102.97 348.164 103.24 348.306 103.572C348.449 103.903 348.639 104.173 348.729 104.173C348.819 104.173 348.893 104.284 348.893 104.419C348.893 104.554 349.007 104.771 349.149 104.9C349.522 105.242 349.911 105.764 350.049 106.108C350.114 106.274 350.25 106.409 350.35 106.409C350.449 106.409 350.53 106.49 350.53 106.588C350.53 106.687 350.702 106.977 350.912 107.233C351.122 107.49 351.58 108.086 351.93 108.559C352.281 109.032 352.643 109.497 352.736 109.591C352.828 109.685 353.085 110.031 353.304 110.359C353.523 110.687 353.865 111.108 354.061 111.295C354.258 111.481 354.42 111.684 354.42 111.747C354.42 111.809 354.613 112.046 354.849 112.273C355.084 112.5 355.657 113.17 356.12 113.761C356.584 114.353 357.035 114.837 357.124 114.837C357.213 114.837 357.285 114.946 357.285 115.08C357.285 115.214 357.354 115.349 357.439 115.38C357.524 115.412 357.866 115.786 358.2 116.212C358.867 117.062 359.074 117.288 359.779 117.942C360.04 118.185 360.378 118.58 360.529 118.822C360.68 119.063 361.026 119.461 361.297 119.707C361.567 119.951 361.789 120.192 361.789 120.24C361.789 120.288 362.042 120.558 362.352 120.84C363.141 121.559 363.426 121.857 363.426 121.968C363.426 122.049 364.258 122.846 365.524 123.976C365.722 124.151 365.883 124.337 365.883 124.389C365.883 124.441 366.091 124.654 366.347 124.862C366.602 125.071 367.317 125.741 367.934 126.353C368.55 126.964 369.401 127.757 369.823 128.116C370.245 128.474 370.59 128.796 370.59 128.833C370.59 128.969 376.326 133.754 376.49 133.754C376.585 133.754 376.778 133.928 376.919 134.141C377.06 134.353 377.559 134.787 378.028 135.104C378.497 135.421 379.525 136.18 380.314 136.79C382.489 138.475 382.91 138.784 383.796 139.336C384.245 139.616 384.704 139.929 384.817 140.034C384.929 140.138 385.39 140.446 385.84 140.72C386.291 140.993 386.705 141.265 386.762 141.323C386.818 141.381 387.324 141.691 387.888 142.01C388.45 142.328 389.06 142.729 389.243 142.901C389.424 143.072 389.677 143.213 389.805 143.213C389.933 143.213 390.037 143.285 390.037 143.373C390.037 143.461 390.204 143.578 390.411 143.633C390.616 143.687 390.968 143.877 391.194 144.054C391.63 144.395 393.007 145.192 393.9 145.62C394.196 145.761 394.468 145.936 394.505 146.006C394.542 146.075 394.911 146.265 395.325 146.426C395.737 146.587 396.149 146.82 396.24 146.944C396.329 147.067 396.492 147.168 396.602 147.168C396.843 147.168 398.504 148.061 398.6 148.243C398.637 148.313 398.84 148.372 399.048 148.372C399.257 148.372 399.488 148.451 399.559 148.551C399.632 148.649 400.121 148.908 400.646 149.127C401.172 149.346 402.385 149.873 403.342 150.3C407.273 152.049 408.833 152.671 409.285 152.671C409.493 152.671 409.713 152.738 409.772 152.818C409.832 152.899 410.689 153.219 411.678 153.528C412.665 153.837 413.562 154.158 413.669 154.24C413.775 154.323 414.031 154.391 414.235 154.391C414.439 154.391 414.765 154.469 414.962 154.564C415.51 154.833 417.842 155.393 417.968 155.288C418.03 155.236 418.08 119.375 418.08 75.5968V-4H376.469H334.86L334.485 -3.63266Z" fill="url(#paint1_linear)"/>
<path d="M100.391 49.8631H49.6136V103.613H100.391V49.8631Z" fill="#221563"/>
<path d="M155.925 49.8631H105.145V103.613H155.925V49.8631Z" fill="#221563"/>
<path d="M100.259 106.825H49.4817V160.574H100.259V106.825Z" fill="#221563"/>
<path d="M155.925 106.748H105.145V160.497H155.925V106.748Z" fill="#221563"/>
<path d="M49.6136 58.8791L100.391 93.7456V49.8631H49.6136V58.8791Z" fill="#0D0830"/>
<path d="M105.145 49.8631V97.0097L114.761 103.613H155.925V49.8631H105.145Z" fill="#0D0830"/>
<path d="M155.925 131.878V106.748H119.326L155.925 131.878Z" fill="#0D0830"/>
<path d="M158.684 82.4592C158.519 82.7761 158.328 83.0862 158.107 83.3827C157.999 83.5299 157.883 83.6747 157.761 83.8151C155.918 85.9678 152.605 87.4572 148.765 87.6428C148.501 87.6542 148.234 87.661 147.967 87.661C143.794 87.661 140.148 86.1172 138.173 83.8151C137.804 83.3872 137.494 82.9345 137.25 82.4592H158.684Z" fill="#D67525"/>
<path d="M158.684 82.4592C158.519 82.7761 158.328 83.0862 158.107 83.3827C157.999 83.5299 157.883 83.6747 157.761 83.8151C155.918 85.9678 152.605 87.4573 148.765 87.6429C145.373 87.1901 142.62 85.7392 141.041 83.8151C140.688 83.385 140.392 82.9323 140.161 82.4592H158.684Z" fill="#F9A34E"/>
<path d="M162.792 82.9662H133.139C133.139 81.3274 133.703 79.779 134.705 78.4073C135.816 76.8907 137.461 75.5891 139.472 74.6225C139.857 74.4369 140.253 74.2626 140.665 74.1042C140.728 74.0793 140.79 74.0566 140.853 74.0317C141.311 73.8597 141.783 73.7035 142.267 73.5632C142.369 73.5337 142.472 73.5066 142.574 73.4794C142.729 73.4364 142.887 73.3979 143.045 73.3594C143.147 73.3345 143.25 73.3096 143.352 73.287C143.464 73.2621 143.579 73.2372 143.695 73.2123C143.807 73.1897 143.919 73.167 144.034 73.1466C144.14 73.1263 144.245 73.1082 144.351 73.0878C144.394 73.081 144.436 73.0742 144.483 73.0674C144.585 73.0493 144.687 73.0335 144.786 73.0199C144.914 72.9995 145.04 72.9814 145.168 72.9656C145.491 72.9226 145.818 72.8886 146.147 72.8614C146.25 72.8524 146.352 72.8433 146.454 72.8388C146.546 72.8297 146.639 72.8252 146.731 72.8207C146.833 72.8139 146.935 72.8094 147.037 72.8048C147.143 72.8003 147.248 72.7958 147.354 72.7935C147.436 72.7913 147.519 72.789 147.604 72.789C147.723 72.7845 147.845 72.7845 147.967 72.7845C148.069 72.7845 148.175 72.7845 148.277 72.7867C148.369 72.789 148.462 72.789 148.551 72.7935C148.676 72.7958 148.798 72.8003 148.92 72.8071C149.015 72.8094 149.108 72.8139 149.203 72.8207C149.451 72.8343 149.694 72.8524 149.935 72.875C149.952 72.875 149.968 72.8773 149.981 72.8795C150.093 72.8886 150.205 72.8999 150.318 72.9135C150.687 72.952 151.049 73.0018 151.405 73.0606C151.646 73.0991 151.88 73.1421 152.114 73.1897C152.23 73.2123 152.348 73.2372 152.464 73.2621C153.36 73.4568 154.221 73.7103 155.032 74.0136C155.137 74.0521 155.243 74.0928 155.345 74.1336C155.473 74.1834 155.602 74.2354 155.727 74.2898C155.928 74.3758 156.129 74.4641 156.324 74.5569C156.423 74.6022 156.522 74.6497 156.617 74.6972C156.713 74.7448 156.809 74.7923 156.904 74.8421C157.376 75.0866 157.824 75.3514 158.252 75.6344C158.338 75.691 158.424 75.7475 158.506 75.8064C158.589 75.8653 158.671 75.9218 158.753 75.983C158.836 76.0418 158.915 76.1007 158.994 76.1618C159.073 76.2229 159.152 76.284 159.228 76.3451C159.367 76.4538 159.499 76.567 159.63 76.6802C159.63 76.6802 159.634 76.6824 159.634 76.6847C159.766 76.8001 159.894 76.9178 160.019 77.0378C160.033 77.0491 160.046 77.0604 160.056 77.0718C160.105 77.1193 160.151 77.1668 160.197 77.2144C160.217 77.2325 160.237 77.2506 160.253 77.2687C160.293 77.3049 160.329 77.3434 160.362 77.3796C160.375 77.3932 160.389 77.4068 160.398 77.4181C160.511 77.5358 160.619 77.6535 160.722 77.7757C160.83 77.9002 160.936 78.0293 161.038 78.1606C161.127 78.2715 161.209 78.3847 161.292 78.5001C161.318 78.5363 161.345 78.5725 161.368 78.6088C161.444 78.7197 161.519 78.8306 161.589 78.9415C161.602 78.9619 161.615 78.9823 161.625 79.0026C161.694 79.1158 161.763 79.229 161.826 79.3444C162.063 79.7723 162.261 80.2159 162.413 80.6686C162.459 80.8067 162.502 80.9448 162.538 81.0852C162.624 81.3953 162.686 81.7099 162.729 82.0291C162.739 82.106 162.749 82.183 162.756 82.26C162.779 82.4931 162.792 82.7285 162.792 82.9662Z" fill="#163E6D"/>
<path d="M162.756 82.2419C162.749 82.1649 162.739 82.0879 162.729 82.011C162.686 81.6918 162.624 81.3772 162.538 81.0671C162.502 80.9267 162.459 80.7886 162.413 80.6505C162.261 80.1978 162.063 79.7542 161.826 79.3263C161.763 79.2109 161.694 79.0977 161.625 78.9845C161.615 78.9642 161.602 78.9438 161.589 78.9234C161.519 78.8125 161.444 78.7016 161.368 78.5907C161.345 78.5544 161.318 78.5182 161.292 78.482C161.209 78.3666 161.127 78.2534 161.038 78.1425C160.936 78.0112 160.83 77.8821 160.722 77.7576C160.619 77.6354 160.511 77.5177 160.398 77.4C160.389 77.3887 160.375 77.3751 160.362 77.3615C160.329 77.3253 160.293 77.2868 160.253 77.2506C160.237 77.2302 160.217 77.2121 160.197 77.1917C160.151 77.1442 160.102 77.0989 160.056 77.0537C160.046 77.0423 160.033 77.031 160.019 77.0197C159.894 76.8997 159.766 76.782 159.634 76.6666C159.634 76.6643 159.63 76.6621 159.63 76.6621C159.499 76.5489 159.367 76.4357 159.228 76.327C159.152 76.2659 159.073 76.2048 158.994 76.1437C158.915 76.0826 158.836 76.0237 158.753 75.9649C158.671 75.9037 158.589 75.8472 158.506 75.7883C158.424 75.7294 158.338 75.6729 158.252 75.6163C157.824 75.3333 157.376 75.0685 156.904 74.824C156.809 74.7742 156.713 74.7267 156.617 74.6791C156.522 74.6316 156.423 74.5841 156.324 74.5388C156.129 74.446 155.928 74.3577 155.727 74.2717C155.602 74.2174 155.473 74.1653 155.345 74.1155C155.243 74.0747 155.137 74.034 155.032 73.9955C154.221 73.6922 153.36 73.4387 152.464 73.244C152.348 73.2191 152.23 73.1942 152.114 73.1716C151.88 73.124 151.646 73.081 151.405 73.0425C151.049 72.9837 150.687 72.9339 150.318 72.8954C150.205 72.8818 150.093 72.8705 149.981 72.8614C149.968 72.8592 149.952 72.8569 149.935 72.8569C149.694 72.8343 149.451 72.8162 149.203 72.8026V42.031H146.731V72.8026C146.639 72.8071 146.546 72.8116 146.454 72.8207C146.352 72.8252 146.25 72.8343 146.147 72.8433C145.818 72.8705 145.491 72.9045 145.168 72.9475C145.04 72.9633 144.914 72.9814 144.786 73.0018C144.687 73.0154 144.585 73.0312 144.483 73.0493C144.436 73.0561 144.394 73.0629 144.351 73.0697C144.245 73.0901 144.14 73.1082 144.034 73.1286C143.919 73.1489 143.807 73.1716 143.695 73.1942C143.579 73.2191 143.464 73.244 143.352 73.2689C143.25 73.2915 143.147 73.3164 143.045 73.3413C142.887 73.3798 142.729 73.4183 142.574 73.4613C142.472 73.4885 142.369 73.5156 142.267 73.5451C141.783 73.6854 141.311 73.8416 140.853 74.0136C140.79 74.0385 140.728 74.0612 140.665 74.0861C142.554 74.3192 144.641 74.6701 146.731 75.1952C147.558 75.4012 148.386 75.6344 149.203 75.9015C153.212 77.2031 156.94 79.2494 158.955 82.4614C159.053 82.6199 159.149 82.7829 159.241 82.9481H162.792C162.792 82.7104 162.779 82.475 162.756 82.2419Z" fill="#0A2056"/>
<path d="M185.782 82.844V78.8736H189.863V78.4209H180.003V74.3554H187.763V73.9027H174.389V74.3554H179.344V78.4209H170.819V78.8736H185.123V82.844H174.88V83.2967H194.202V82.844H185.782Z" fill="#212735"/>
<path d="M28.6836 95.8824V95.4297H15.0456V91.362H20.5608V90.9093H7.18985V91.362H14.3863V95.4297H9.63921V95.8824H20.1619V99.8528H5.57782V100.306H24.9024V99.8528H20.8212V95.8824H28.6836Z" fill="#212735"/>
<path d="M127.584 173.819V173.366H113.943V169.301H119.462V168.848H106.087V169.301H113.284V173.366H108.54V173.819H119.063V177.789H104.479V178.242H123.803V177.789H119.722V173.819H127.584Z" fill="#212735"/>
<path d="M147.028 156.323V180.886L142.297 177.637V156.323C142.297 155.877 142.729 155.517 143.26 155.517H146.068C146.602 155.517 147.028 155.877 147.028 156.323Z" fill="#100F1E"/>
<path d="M163.573 209.403C163.573 209.032 163.115 208.733 162.551 208.733H155.005L155.015 208.728L147.028 208.733V180.734L142.297 177.637V208.733H125.834C125.27 208.733 124.812 209.032 124.812 209.403V210.286C124.812 210.304 124.818 210.317 124.818 210.335H124.812V211.415C124.812 211.503 124.921 211.576 125.059 211.576H163.3C163.451 211.576 163.573 211.497 163.573 211.399V210.338H163.567C163.567 210.32 163.573 210.306 163.573 210.288V209.403Z" fill="#1C1930"/>
<path d="M194.198 150.612V155.053C194.198 155.671 193.598 156.172 192.86 156.172H95.1426C94.4042 156.172 93.8042 155.671 93.8042 155.053V150.594C93.8174 149.985 94.4108 149.496 95.1426 149.496H192.86C193.598 149.496 194.198 149.994 194.198 150.612Z" fill="#1C1930"/>
<path d="M194.198 153.722H93.8042V154.628H194.198V153.722Z" fill="#100F1E"/>
<path d="M47.4048 174.489V188.571C47.4048 188.931 47.0389 189.225 46.5873 189.225H43.3204C42.8655 189.225 42.4962 188.933 42.4962 188.571V174.489C42.4962 174.124 42.8622 173.832 43.3204 173.832H46.5873C47.0389 173.832 47.4048 174.127 47.4048 174.489Z" fill="#1C1930"/>
<path d="M48.2323 189.888H41.626C41.2106 189.888 40.8941 190.155 40.9403 190.456L42.1897 198.513L43.2248 205.149C43.2611 205.407 43.5578 205.602 43.9105 205.602H46.1983C46.551 205.602 46.851 205.405 46.884 205.143L47.7147 199.13L48.918 190.447C48.9608 190.148 48.6411 189.888 48.2323 189.888Z" fill="#1C1930"/>
<path d="M42.1534 201.772C41.0952 201.888 40.037 202.005 38.9788 202.121C36.6415 202.377 34.3075 202.63 31.9703 202.886C29.4319 203.164 26.8869 203.445 24.3486 203.726C23.3365 203.839 22.3212 203.952 21.3124 204.065C20.4619 204.158 19.5487 204.215 18.718 204.375C18.6488 204.391 18.5301 204.457 18.5004 204.504C18.3752 204.708 18.4213 205.355 18.4213 205.604H15.0687C15.039 205.387 15.039 205.168 15.0555 204.95C15.0786 204.602 15.0258 204.244 15.339 203.943C15.9093 203.4 17.2939 203.239 18.1543 203.033C20.3169 202.519 22.5091 202.069 24.7013 201.618C27.2759 201.093 29.867 200.586 32.4582 200.088C34.6174 199.672 36.78 199.264 38.9425 198.861C39.8458 198.694 40.7491 198.526 41.6556 198.361L41.9062 200.081L42.1534 201.772Z" fill="#1C1930"/>
<path d="M20.6267 208.977C20.6399 209.176 20.6168 209.373 20.5641 209.566C20.2476 210.7 18.8334 211.574 17.0862 211.628C15.9357 211.66 14.8874 211.327 14.1753 210.781C13.6215 210.358 13.2688 209.806 13.2292 209.197C13.1402 207.796 14.7225 206.612 16.7697 206.551C18.8136 206.487 20.5377 207.576 20.6267 208.977Z" fill="#1C1930"/>
<path d="M48.6279 209.002C48.7136 210.406 47.1279 211.592 45.0873 211.653C44.9687 211.655 44.8533 211.655 44.7346 211.651C42.849 211.585 41.3161 210.544 41.2337 209.224C41.1446 207.823 42.727 206.639 44.7742 206.578C46.4389 206.526 47.896 207.243 48.4235 208.273C48.5455 208.5 48.6147 208.744 48.6279 209.002Z" fill="#1C1930"/>
<path d="M76.8202 209.222C76.7312 210.623 75.0071 211.709 72.9665 211.653C72.7028 211.646 72.4457 211.617 72.1952 211.571C70.537 211.277 69.3469 210.222 69.426 209.002C69.515 207.601 71.2391 206.514 73.2797 206.576C74.2588 206.605 75.1324 206.892 75.7653 207.334C76.4576 207.821 76.8664 208.493 76.8202 209.222Z" fill="#1C1930"/>
<path d="M47.8928 201.772C48.951 201.888 50.0092 202.005 51.0674 202.121C53.4046 202.377 55.7386 202.63 58.0759 202.886C60.6143 203.164 63.1592 203.445 65.6976 203.726C66.7096 203.839 67.725 203.952 68.7337 204.065C69.5843 204.158 70.4974 204.215 71.3281 204.375C71.3974 204.391 71.516 204.457 71.5457 204.504C71.671 204.708 71.6248 205.355 71.6248 205.604H74.9775C75.0071 205.387 75.0071 205.168 74.9906 204.95C74.9676 204.602 75.0203 204.244 74.7071 203.943C74.1368 203.4 72.7523 203.239 71.8919 203.033C69.7293 202.519 67.5371 202.069 65.3449 201.618C62.7702 201.093 60.1791 200.586 57.588 200.088C55.4287 199.672 53.2662 199.264 51.1069 198.861C50.2037 198.694 49.3004 198.526 48.3938 198.361L48.1433 200.081L47.8928 201.772Z" fill="#1C1930"/>
<path d="M75.7522 170.618C75.4917 170.935 75.2214 171.247 74.9412 171.557C74.6544 171.874 74.3248 172.203 73.8039 172.352C73.4907 172.442 73.1413 172.456 72.7984 172.467C71.3875 172.517 69.9799 172.562 68.5689 172.603C61.9098 172.796 55.2408 172.891 48.5751 172.888C41.9062 172.886 35.2405 172.789 28.5814 172.594C28.4067 172.59 28.2286 172.585 28.0539 172.578C27.9155 172.574 27.777 172.569 27.6353 172.565C25.4661 172.486 23.2706 172.32 21.3882 171.646C19.8092 171.078 18.5828 170.183 17.7059 169.16C17.3038 168.692 16.9774 168.196 16.717 167.691C16.7137 167.687 16.7137 167.68 16.7104 167.675C16.6247 167.51 16.5488 167.343 16.4796 167.177C16.4631 167.143 16.4499 167.109 16.4335 167.075C16.3675 166.915 16.3082 166.752 16.2522 166.589C16.2423 166.553 16.2291 166.516 16.2159 166.48C16.1631 166.315 16.117 166.15 16.0741 165.982C16.0708 165.962 16.0642 165.941 16.061 165.921C16.0214 165.754 15.9851 165.586 15.9555 165.421C15.9522 165.405 15.9489 165.391 15.9489 165.378C15.9192 165.201 15.8961 165.025 15.8763 164.846C15.873 164.828 15.873 164.81 15.8698 164.789C15.8533 164.608 15.8401 164.425 15.8302 164.244V164.237C15.8269 164.108 15.8236 163.981 15.8236 163.852C15.8236 163.34 15.8599 162.831 15.9192 162.32C15.9851 161.779 16.0774 161.233 16.1862 160.688C16.2291 160.466 16.2752 160.244 16.3214 160.02C16.328 159.995 16.3313 159.972 16.3379 159.947C16.3873 159.71 16.4401 159.472 16.4862 159.234C17.7521 153.204 18.6191 147.262 17.973 141.152C17.7653 139.219 17.4455 137.293 17.073 135.367C16.6477 133.191 16.1598 131.018 15.6884 128.845C15.2764 126.928 14.8775 125.008 14.5577 123.087C14.2149 121.02 13.0248 118.582 15.0225 116.705C17.0499 114.799 21.5794 113.622 25.0903 113.871C25.8221 113.923 26.554 114.082 27.1243 114.367C27.1869 114.397 27.243 114.428 27.299 114.46C27.3946 114.519 27.4869 114.578 27.5693 114.643C28.3176 115.218 28.5023 116.074 28.4627 117.006C28.4067 118.421 27.8363 120.006 27.9451 121.031C28.199 123.422 28.2253 125.436 28.3012 127.483C28.3012 127.483 28.3012 127.483 28.3012 127.485V127.487C28.3341 128.433 28.3803 129.386 28.4627 130.384C28.6341 132.485 28.644 134.728 28.6044 136.831C28.5187 141.909 26.3694 146.678 24.8398 151.626C24.8233 151.685 24.8035 151.746 24.787 151.807C24.7672 151.882 24.7442 151.954 24.7244 152.031C24.7013 152.106 24.6848 152.185 24.665 152.262C24.6551 152.292 24.6485 152.323 24.642 152.355C24.6321 152.387 24.6255 152.419 24.6156 152.452C24.5958 152.541 24.576 152.631 24.5562 152.722V152.735C24.5431 152.785 24.5332 152.833 24.5233 152.88C24.5101 152.948 24.4969 153.018 24.4837 153.089L23.7255 152.919C23.7255 152.919 19.9114 160.192 21.2465 162.682C22.5816 165.169 24.0651 168.178 35.4383 168.2C46.8115 168.225 63.1329 168.087 74.9973 170.475C75.2643 170.53 75.5148 170.577 75.7522 170.618Z" fill="#1C1930"/>
<path d="M47.4048 174.489V188.571C47.4048 188.931 47.0389 189.225 46.5873 189.225H43.3204C42.8655 189.225 42.4962 188.933 42.4962 188.571V174.489C42.4962 174.124 42.8622 173.832 43.3204 173.832H46.5873C47.0389 173.832 47.4048 174.127 47.4048 174.489Z" fill="#1C1930"/>
<path d="M48.2323 189.888H41.626C41.2106 189.888 40.8941 190.155 40.9403 190.456L42.1897 198.513L43.2248 205.149C43.2611 205.407 43.5578 205.602 43.9105 205.602H46.1983C46.551 205.602 46.851 205.405 46.884 205.143L47.7147 199.13L48.918 190.447C48.9608 190.148 48.6411 189.888 48.2323 189.888Z" fill="#1C1930"/>
<path d="M42.1534 201.772C41.0952 201.888 40.037 202.005 38.9788 202.121C36.6415 202.377 34.3075 202.63 31.9703 202.886C29.4319 203.164 26.8869 203.445 24.3486 203.726C23.3365 203.839 22.3212 203.952 21.3124 204.065C20.4619 204.158 19.5487 204.215 18.718 204.375C18.6488 204.391 18.5301 204.457 18.5004 204.504C18.3752 204.708 18.4213 205.355 18.4213 205.604H15.0687C15.039 205.387 15.039 205.168 15.0555 204.95C15.0786 204.602 15.0258 204.244 15.339 203.943C15.9093 203.4 17.2939 203.239 18.1543 203.033C20.3169 202.519 22.5091 202.069 24.7013 201.618C27.2759 201.093 29.867 200.586 32.4582 200.088C34.6174 199.672 36.78 199.264 38.9425 198.861C39.8458 198.694 40.7491 198.526 41.6556 198.361L41.9062 200.081L42.1534 201.772Z" fill="#1C1930"/>
<path d="M20.6267 208.977C20.6399 209.176 20.6168 209.373 20.5641 209.566C20.2476 210.7 18.8334 211.574 17.0862 211.628C15.9357 211.66 14.8874 211.327 14.1753 210.781C13.6215 210.358 13.2688 209.806 13.2292 209.197C13.1402 207.796 14.7225 206.612 16.7697 206.551C18.8136 206.487 20.5377 207.576 20.6267 208.977Z" fill="#1C1930"/>
<path d="M48.6279 209.002C48.7136 210.406 47.1279 211.592 45.0873 211.653C44.9687 211.655 44.8533 211.655 44.7346 211.651C42.849 211.585 41.3161 210.544 41.2337 209.224C41.1446 207.823 42.727 206.639 44.7742 206.578C46.4389 206.526 47.896 207.243 48.4235 208.273C48.5455 208.5 48.6147 208.744 48.6279 209.002Z" fill="#1C1930"/>
<path d="M76.8202 209.222C76.7312 210.623 75.0071 211.709 72.9665 211.653C72.7028 211.646 72.4457 211.617 72.1952 211.571C70.537 211.277 69.3469 210.222 69.426 209.002C69.515 207.601 71.2391 206.514 73.2797 206.576C74.2588 206.605 75.1324 206.892 75.7653 207.334C76.4576 207.821 76.8664 208.493 76.8202 209.222Z" fill="#1C1930"/>
<path d="M47.8928 201.772C48.951 201.888 50.0092 202.005 51.0674 202.121C53.4046 202.377 55.7386 202.63 58.0759 202.886C60.6143 203.164 63.1592 203.445 65.6976 203.726C66.7096 203.839 67.725 203.952 68.7337 204.065C69.5843 204.158 70.4974 204.215 71.3281 204.375C71.3974 204.391 71.516 204.457 71.5457 204.504C71.671 204.708 71.6248 205.355 71.6248 205.604H74.9775C75.0071 205.387 75.0071 205.168 74.9906 204.95C74.9676 204.602 75.0203 204.244 74.7071 203.943C74.1368 203.4 72.7523 203.239 71.8919 203.033C69.7293 202.519 67.5371 202.069 65.3449 201.618C62.7702 201.093 60.1791 200.586 57.588 200.088C55.4287 199.672 53.2662 199.264 51.1069 198.861C50.2037 198.694 49.3004 198.526 48.3938 198.361L48.1433 200.081L47.8928 201.772Z" fill="#1C1930"/>
<path d="M75.7522 170.618C75.4917 170.935 75.2214 171.247 74.9412 171.557C74.6544 171.874 74.3248 172.203 73.8039 172.352C73.4907 172.442 73.1413 172.456 72.7984 172.467C71.3875 172.517 69.9799 172.562 68.5689 172.603C61.9098 172.796 55.2408 172.891 48.5751 172.888C41.9062 172.886 35.2405 172.789 28.5814 172.594C28.4067 172.59 28.2286 172.585 28.0539 172.578C27.9155 172.574 27.777 172.569 27.6353 172.565C25.4661 172.486 23.2706 172.32 21.3882 171.646C19.8092 171.078 18.5828 170.183 17.7059 169.16C17.3038 168.692 16.9774 168.196 16.717 167.691C16.7137 167.687 16.7137 167.68 16.7104 167.675C16.6247 167.51 16.5488 167.343 16.4796 167.177C16.4631 167.143 16.4499 167.109 16.4335 167.075C16.3675 166.915 16.3082 166.752 16.2522 166.589C16.2423 166.553 16.2291 166.516 16.2159 166.48C16.1631 166.315 16.117 166.15 16.0741 165.982C16.0708 165.962 16.0642 165.941 16.061 165.921C16.0214 165.754 15.9851 165.586 15.9555 165.421C15.9522 165.405 15.9489 165.391 15.9489 165.378C15.9192 165.201 15.8961 165.025 15.8763 164.846C15.873 164.828 15.873 164.81 15.8698 164.789C15.8533 164.608 15.8401 164.425 15.8302 164.244V164.237C15.8269 164.108 15.8236 163.981 15.8236 163.852C15.8236 163.34 15.8599 162.831 15.9192 162.32C15.9851 161.779 16.0774 161.233 16.1862 160.688C16.2291 160.466 16.2752 160.244 16.3214 160.02C16.328 159.995 16.3313 159.972 16.3379 159.947C16.3873 159.71 16.4401 159.472 16.4862 159.234C17.7521 153.204 18.6191 147.262 17.973 141.152C17.7653 139.219 17.4455 137.293 17.073 135.367C16.6477 133.191 16.1598 131.018 15.6884 128.845C15.2764 126.928 14.8775 125.008 14.5577 123.087C14.2149 121.02 13.0248 118.582 15.0225 116.705C17.0499 114.799 21.5794 113.622 25.0903 113.871C25.8221 113.923 26.554 114.082 27.1243 114.367C27.1869 114.397 27.243 114.428 27.299 114.46C27.3946 114.519 27.4869 114.578 27.5693 114.643C28.3176 115.218 28.5023 116.074 28.4627 117.006C28.4067 118.421 27.8363 120.006 27.9451 121.031C28.199 123.422 28.2253 125.436 28.3012 127.483C28.3012 127.483 28.3012 127.483 28.3012 127.485V127.487C28.3341 128.433 28.3803 129.386 28.4627 130.384C28.6341 132.485 28.644 134.728 28.6044 136.831C28.5187 141.909 26.3694 146.678 24.8398 151.626C24.8233 151.685 24.8035 151.746 24.787 151.807C24.7672 151.882 24.7442 151.954 24.7244 152.031C24.7013 152.106 24.6848 152.185 24.665 152.262C24.6551 152.292 24.6485 152.323 24.642 152.355C24.6321 152.387 24.6255 152.419 24.6156 152.452C24.5958 152.541 24.576 152.631 24.5562 152.722V152.735C24.5431 152.785 24.5332 152.833 24.5233 152.88C24.5101 152.948 24.4969 153.018 24.4837 153.089L23.7255 152.919C23.7255 152.919 19.9114 160.192 21.2465 162.682C22.5816 165.169 24.0651 168.178 35.4383 168.2C46.8115 168.225 63.1329 168.087 74.9973 170.475C75.2643 170.53 75.5148 170.577 75.7522 170.618Z" fill="#1C1930"/>
<path d="M47.4048 182.697V188.625C47.4048 188.956 47.0389 189.225 46.5873 189.225H43.3204C42.8654 189.225 42.4962 188.956 42.4962 188.625V182.047C43.4984 181.841 44.461 181.812 45.1533 182.158C45.6511 182.402 46.4554 182.577 47.4048 182.697Z" fill="#100F1E"/>
<path d="M49.4157 209.394L49.0861 209.385C49.1883 207.732 47.4081 206.336 45.117 206.268C44.0061 206.236 42.9446 206.514 42.127 207.055C41.3062 207.599 40.8249 208.339 40.7754 209.14L40.4458 209.131C40.4985 208.271 41.0161 207.476 41.8995 206.895C42.7863 206.311 43.9368 206.007 45.1335 206.044C47.6026 206.112 49.5278 207.617 49.4157 209.394Z" fill="#100F1E"/>
<path d="M21.408 209.394L21.0783 209.385C21.1805 207.732 19.4004 206.336 17.1092 206.268C15.9983 206.236 14.9368 206.514 14.1192 207.055C13.2984 207.599 12.8171 208.339 12.7676 209.14L12.438 209.131C12.4907 208.271 13.0083 207.476 13.8918 206.895C14.7786 206.311 15.9291 206.007 17.1257 206.044C19.5949 206.112 21.5168 207.617 21.408 209.394Z" fill="#100F1E"/>
<path d="M42.1534 201.772C41.0952 201.888 40.037 202.005 38.9788 202.121C36.6415 202.376 34.3075 202.63 31.9702 202.886C29.4319 203.164 26.8869 203.445 24.3485 203.726C23.3365 203.839 22.3211 203.952 21.3124 204.065C20.4619 204.158 19.5487 204.215 18.718 204.375C18.6487 204.391 18.5301 204.457 18.5004 204.504C18.3751 204.708 18.4213 205.355 18.4213 205.604H16.9213C16.9246 205 17.0202 204.28 17.396 203.961C18.0619 203.391 39.3546 200.432 41.9028 200.081L42.1534 201.772Z" fill="#100F1E"/>
<path d="M20.5674 209.563C20.2509 210.698 18.8367 211.571 17.0895 211.626C15.939 211.657 14.8907 211.325 14.1786 210.779C15.6489 210.906 17.5114 210.885 19.2191 210.333C19.8322 210.134 20.2707 209.867 20.5674 209.563Z" fill="#100F1E"/>
<path d="M48.6279 209.002C48.7136 210.406 47.1279 211.592 45.0873 211.653C44.9687 211.655 44.8533 211.655 44.7346 211.651C44.9126 211.583 45.1236 211.512 45.3741 211.438C47.2202 210.892 48.0543 209.514 48.4202 208.271C48.5454 208.5 48.6147 208.744 48.6279 209.002Z" fill="#100F1E"/>
<path d="M77.6081 209.394L77.2785 209.385C77.3806 207.732 75.6005 206.336 73.3094 206.268C72.1984 206.236 71.1369 206.514 70.3194 207.055C69.4985 207.599 69.0172 208.339 68.9678 209.14L68.6381 209.131C68.6909 208.271 69.2084 207.476 70.0919 206.895C70.9787 206.311 72.1292 206.007 73.3259 206.044C75.795 206.112 77.7169 207.617 77.6081 209.394Z" fill="#100F1E"/>
<path d="M47.8927 201.772C48.9509 201.888 50.0091 202.005 51.0673 202.121C53.4046 202.376 55.7386 202.63 58.0759 202.886C60.6142 203.164 63.1592 203.445 65.6976 203.726C66.7096 203.839 67.725 203.952 68.7337 204.065C69.5842 204.158 70.4974 204.215 71.3281 204.375C71.3974 204.391 71.516 204.457 71.5457 204.504C71.671 204.708 71.6248 205.355 71.6248 205.604H73.1248C73.1215 205 73.0259 204.28 72.6501 203.961C71.9842 203.391 50.6915 200.432 48.1433 200.081L47.8927 201.772Z" fill="#100F1E"/>
<path d="M76.8202 209.222C76.7312 210.623 75.0071 211.709 72.9665 211.653C72.7028 211.646 72.4457 211.617 72.1951 211.571C72.4786 211.413 72.8808 211.261 73.4412 211.114C75.9796 210.442 76.0917 208.665 75.7686 207.334C76.4576 207.82 76.8664 208.493 76.8202 209.222Z" fill="#100F1E"/>
<path d="M78.9102 164.375C78.9102 164.918 78.7982 165.477 78.6136 166.023C78.4553 166.496 78.241 166.958 77.9938 167.39C77.8389 167.662 77.674 167.933 77.5059 168.2C77.3378 168.468 77.1598 168.732 76.9784 168.995C76.5993 169.545 76.1906 170.086 75.7521 170.618C75.5148 170.577 75.2642 170.53 74.9972 170.475C63.1328 168.087 46.8114 168.225 35.4382 168.2C24.065 168.178 22.5816 165.169 21.2464 162.682C19.9113 160.192 23.7255 152.919 23.7255 152.919L24.4837 153.089C24.4771 153.12 24.4738 153.154 24.4672 153.188C24.4606 153.231 24.4507 153.272 24.4441 153.315C24.4243 153.428 24.4079 153.541 24.3914 153.657C24.3914 153.668 24.3881 153.677 24.3881 153.688C24.3848 153.709 24.3815 153.731 24.3782 153.754C24.3617 153.879 24.3452 154.005 24.3287 154.132C24.3287 154.146 24.3255 154.159 24.3255 154.173C24.3255 154.18 24.3255 154.186 24.3222 154.193C24.309 154.329 24.2958 154.467 24.2826 154.607V154.635C24.2562 154.954 24.2397 155.28 24.2331 155.608C24.2299 155.683 24.2298 155.76 24.2298 155.837C24.2266 156.077 24.2298 156.316 24.2364 156.559C24.243 156.674 24.2463 156.792 24.2529 156.907C24.2628 157.127 24.2793 157.344 24.2991 157.564C24.309 157.675 24.3189 157.788 24.332 157.899C24.365 158.222 24.4079 158.546 24.4639 158.865C24.5232 159.227 24.5991 159.585 24.6848 159.936C24.998 161.21 25.2914 162.064 26.7418 163.105C28.4396 164.321 30.5197 164.905 32.7185 165.14C32.8768 165.158 33.0383 165.174 33.1966 165.188C33.3713 165.201 33.5427 165.215 33.7174 165.226C34.0141 165.246 34.3141 165.26 34.6108 165.267C34.6635 165.269 34.7196 165.269 34.7756 165.271C34.8778 165.274 34.98 165.276 35.0822 165.278C35.3525 165.28 35.6261 165.28 35.8965 165.278C36.7107 165.269 37.525 165.233 38.3293 165.183C47.1081 164.635 55.6924 163.3 64.2602 161.98C65.8953 161.726 67.5304 161.475 69.1656 161.231C69.4095 161.195 69.6502 161.158 69.8941 161.122C72.205 160.776 74.8423 160.479 76.8004 161.342C78.1092 161.917 78.7092 162.813 78.8674 163.814C78.8971 163.997 78.9102 164.185 78.9102 164.375Z" fill="#100F1E"/>
<path d="M47.4048 182.697V188.625C47.4048 188.956 47.0389 189.225 46.5873 189.225H43.3204C42.8654 189.225 42.4962 188.956 42.4962 188.625V182.047C43.4984 181.841 44.461 181.812 45.1533 182.158C45.6511 182.402 46.4554 182.577 47.4048 182.697Z" fill="#100F1E"/>
<path d="M49.4157 209.394L49.0861 209.385C49.1883 207.732 47.4081 206.336 45.117 206.268C44.0061 206.236 42.9446 206.514 42.127 207.055C41.3062 207.599 40.8249 208.339 40.7754 209.14L40.4458 209.131C40.4985 208.271 41.0161 207.476 41.8995 206.895C42.7863 206.311 43.9368 206.007 45.1335 206.044C47.6026 206.112 49.5278 207.617 49.4157 209.394Z" fill="#100F1E"/>
<path d="M21.408 209.394L21.0783 209.385C21.1805 207.732 19.4004 206.336 17.1092 206.268C15.9983 206.236 14.9368 206.514 14.1192 207.055C13.2984 207.599 12.8171 208.339 12.7676 209.14L12.438 209.131C12.4907 208.271 13.0083 207.476 13.8918 206.895C14.7786 206.311 15.9291 206.007 17.1257 206.044C19.5949 206.112 21.5168 207.617 21.408 209.394Z" fill="#100F1E"/>
<path d="M42.1534 201.772C41.0952 201.888 40.037 202.005 38.9788 202.121C36.6415 202.376 34.3075 202.63 31.9702 202.886C29.4319 203.164 26.8869 203.445 24.3485 203.726C23.3365 203.839 22.3211 203.952 21.3124 204.065C20.4619 204.158 19.5487 204.215 18.718 204.375C18.6487 204.391 18.5301 204.457 18.5004 204.504C18.3751 204.708 18.4213 205.355 18.4213 205.604H16.9213C16.9246 205 17.0202 204.28 17.396 203.961C18.0619 203.391 39.3546 200.432 41.9028 200.081L42.1534 201.772Z" fill="#100F1E"/>
<path d="M20.5674 209.563C20.2509 210.698 18.8367 211.571 17.0895 211.626C15.939 211.657 14.8907 211.325 14.1786 210.779C15.6489 210.906 17.5114 210.885 19.2191 210.333C19.8322 210.134 20.2707 209.867 20.5674 209.563Z" fill="#100F1E"/>
<path d="M48.6279 209.002C48.7136 210.406 47.1279 211.592 45.0873 211.653C44.9687 211.655 44.8533 211.655 44.7346 211.651C44.9126 211.583 45.1236 211.512 45.3741 211.438C47.2202 210.892 48.0543 209.514 48.4202 208.271C48.5454 208.5 48.6147 208.744 48.6279 209.002Z" fill="#100F1E"/>
<path d="M77.6081 209.394L77.2785 209.385C77.3806 207.732 75.6005 206.336 73.3094 206.268C72.1984 206.236 71.1369 206.514 70.3194 207.055C69.4985 207.599 69.0172 208.339 68.9678 209.14L68.6381 209.131C68.6909 208.271 69.2084 207.476 70.0919 206.895C70.9787 206.311 72.1292 206.007 73.3259 206.044C75.795 206.112 77.7169 207.617 77.6081 209.394Z" fill="#100F1E"/>
<path d="M47.8927 201.772C48.9509 201.888 50.0091 202.005 51.0673 202.121C53.4046 202.376 55.7386 202.63 58.0759 202.886C60.6142 203.164 63.1592 203.445 65.6976 203.726C66.7096 203.839 67.725 203.952 68.7337 204.065C69.5842 204.158 70.4974 204.215 71.3281 204.375C71.3974 204.391 71.516 204.457 71.5457 204.504C71.671 204.708 71.6248 205.355 71.6248 205.604H73.1248C73.1215 205 73.0259 204.28 72.6501 203.961C71.9842 203.391 50.6915 200.432 48.1433 200.081L47.8927 201.772Z" fill="#100F1E"/>
<path d="M76.8202 209.222C76.7312 210.623 75.0071 211.709 72.9665 211.653C72.7028 211.646 72.4457 211.617 72.1951 211.571C72.4786 211.413 72.8808 211.261 73.4412 211.114C75.9796 210.442 76.0917 208.665 75.7686 207.334C76.4576 207.82 76.8664 208.493 76.8202 209.222Z" fill="#100F1E"/>
<path d="M78.9102 164.375C78.9102 164.918 78.7982 165.477 78.6136 166.023C78.4553 166.496 78.241 166.958 77.9938 167.39C77.8389 167.662 77.674 167.933 77.5059 168.2C77.3378 168.468 77.1598 168.732 76.9784 168.995C76.5993 169.545 76.1906 170.086 75.7521 170.618C75.5148 170.577 75.2642 170.53 74.9972 170.475C63.1328 168.087 46.8114 168.225 35.4382 168.2C24.065 168.178 22.5816 165.169 21.2464 162.682C19.9113 160.192 23.7255 152.919 23.7255 152.919L24.4837 153.089C24.4771 153.12 24.4738 153.154 24.4672 153.188C24.4606 153.231 24.4507 153.272 24.4441 153.315C24.4243 153.428 24.4079 153.541 24.3914 153.657C24.3914 153.668 24.3881 153.677 24.3881 153.688C24.3848 153.709 24.3815 153.731 24.3782 153.754C24.3617 153.879 24.3452 154.005 24.3287 154.132C24.3287 154.146 24.3255 154.159 24.3255 154.173C24.3255 154.18 24.3255 154.186 24.3222 154.193C24.309 154.329 24.2958 154.467 24.2826 154.607V154.635C24.2562 154.954 24.2397 155.28 24.2331 155.608C24.2299 155.683 24.2298 155.76 24.2298 155.837C24.2266 156.077 24.2298 156.316 24.2364 156.559C24.243 156.674 24.2463 156.792 24.2529 156.907C24.2628 157.127 24.2793 157.344 24.2991 157.564C24.309 157.675 24.3189 157.788 24.332 157.899C24.365 158.222 24.4079 158.546 24.4639 158.865C24.5232 159.227 24.5991 159.585 24.6848 159.936C24.998 161.21 25.2914 162.064 26.7418 163.105C28.4396 164.321 30.5197 164.905 32.7185 165.14C32.8768 165.158 33.0383 165.174 33.1966 165.188C33.3713 165.201 33.5427 165.215 33.7174 165.226C34.0141 165.246 34.3141 165.26 34.6108 165.267C34.6635 165.269 34.7196 165.269 34.7756 165.271C34.8778 165.274 34.98 165.276 35.0822 165.278C35.3525 165.28 35.6261 165.28 35.8965 165.278C36.7107 165.269 37.525 165.233 38.3293 165.183C47.1081 164.635 55.6924 163.3 64.2602 161.98C65.8953 161.726 67.5304 161.475 69.1656 161.231C69.4095 161.195 69.6502 161.158 69.8941 161.122C72.205 160.776 74.8423 160.479 76.8004 161.342C78.1092 161.917 78.7092 162.813 78.8674 163.814C78.8971 163.997 78.9102 164.185 78.9102 164.375Z" fill="#100F1E"/>
<path d="M189.102 108.595C187.737 108.212 185.667 108.943 184.533 109.539C184.533 109.539 183.119 110.277 181.75 111.547C181.694 111.907 181.714 112.337 181.714 112.337C181.635 112.271 181.474 112.103 181.332 111.954C180.61 112.692 179.947 113.579 179.568 114.582C178.559 117.242 180.086 118.236 178.922 119.775C179.136 119.913 179.324 120.071 179.492 120.237C179.937 120.676 180.231 121.178 180.445 121.688C180.616 122.088 180.742 122.498 180.844 122.908C180.933 123.265 181.025 123.63 181.114 124.001C181.53 123.695 181.981 123.437 182.456 123.207C182.69 123.096 182.931 122.991 183.175 122.89C183.976 122.561 184.829 122.285 185.703 121.984C186.287 121.78 186.854 121.55 187.391 121.292C186.893 119.768 187.16 118.573 187.651 117.543L186.715 116.762L188.149 116.638C188.555 115.974 188.99 115.37 189.263 114.77C189.682 113.862 189.975 113.075 190.167 112.398L189.346 111.879L190.308 111.845C190.757 109.788 190.127 108.88 189.102 108.595Z" fill="#0A2056"/>
<path d="M181.602 132.693L181.553 133.046L181.467 134.744C181.388 135.165 181.424 135.586 181.404 136.01H180.442C180.501 135.584 180.557 135.161 180.616 134.735C180.715 134.015 180.824 133.298 180.933 132.58C181.15 132.628 181.375 132.666 181.602 132.693Z" fill="#03122B"/>
<path d="M186.758 111.42C186.352 111.922 185.996 112.432 185.654 112.955C185.476 113.215 185.311 113.477 185.12 113.736L184.829 114.12C184.783 114.181 184.737 114.243 184.694 114.304L184.569 114.492C184.414 114.745 184.269 114.999 184.15 115.259C184.035 115.519 183.943 115.786 183.867 116.053C183.719 116.592 183.636 117.14 183.606 117.697C183.567 118.55 183.577 119.404 183.557 120.257C183.54 120.547 183.521 120.839 183.484 121.131C183.451 121.423 183.399 121.722 183.343 122.009L183.181 122.856L183.175 122.89C182.931 122.991 182.69 123.096 182.456 123.207L182.528 122.799C182.624 122.231 182.759 121.665 182.812 121.097C182.924 119.96 182.865 118.815 182.97 117.67C183.026 117.099 183.122 116.527 183.316 115.967C183.501 115.408 183.784 114.863 184.164 114.349C184.351 114.093 184.579 113.851 184.787 113.604C184.994 113.358 185.195 113.109 185.4 112.857C185.802 112.359 186.214 111.859 186.702 111.393L186.758 111.42Z" fill="#03122B"/>
<path d="M197.844 114.854C197.459 114.299 196.658 113.842 195.764 113.862C194.881 113.88 194.146 114.351 193.72 114.881C192.735 116.106 192.359 117.461 191.189 118.643C191.142 118.688 191.096 118.734 191.053 118.779L191.386 119.492L190.75 119.062C190.681 119.125 190.612 119.186 190.542 119.247L190.905 119.625L190.312 119.442C189.464 120.144 188.479 120.771 187.391 121.292C186.854 121.55 186.287 121.78 185.703 121.984C184.829 122.285 183.976 122.561 183.175 122.89C182.931 122.991 182.69 123.096 182.456 123.207C181.981 123.437 181.53 123.695 181.114 124.001C181.464 125.497 181.721 127.073 181.289 128.519C180.936 129.694 180.056 130.563 178.767 131.034C178.711 131.054 178.652 131.075 178.592 131.095C178.777 131.446 179.051 131.763 179.443 132.014C179.852 132.275 180.366 132.458 180.933 132.58C181.15 132.628 181.375 132.666 181.602 132.693C181.816 132.723 182.037 132.743 182.255 132.757C182.466 132.77 182.674 132.779 182.881 132.779C183.573 132.788 184.253 132.739 184.836 132.655C188.713 132.093 189.985 130.015 191.291 127.851L190.335 126.742L191.723 127.145C191.894 126.867 192.072 126.591 192.26 126.317C193.348 124.75 195.003 123.63 196.539 122.283C198.108 120.907 198.293 119.184 198.28 117.502C198.273 116.624 198.411 115.669 197.844 114.854Z" fill="#0F3860"/>
<path d="M195.217 116.633C195.098 117.206 194.864 117.767 194.568 118.308C194.271 118.851 193.902 119.376 193.457 119.868C193.008 120.359 192.51 120.832 191.927 121.248C191.65 121.468 191.324 121.654 191.02 121.853C190.945 121.905 190.859 121.946 190.776 121.991L190.529 122.127C190.361 122.215 190.2 122.308 190.028 122.392C188.657 123.073 187.312 123.8 186.184 124.676C185.621 125.112 185.106 125.583 184.668 126.084C184.233 126.586 183.864 127.114 183.564 127.661C182.964 128.755 182.624 129.907 182.433 131.064C182.341 131.643 182.278 132.225 182.252 132.806C182.222 133.388 182.222 133.972 182.235 134.552L182.261 136.01H182.825C182.799 135.523 182.789 135.036 182.799 134.549C182.812 133.965 182.838 133.397 182.878 132.822C182.921 132.25 182.997 131.681 183.102 131.118C183.313 129.988 183.646 128.877 184.233 127.836C184.516 127.313 184.859 126.808 185.268 126.33C185.677 125.853 186.161 125.407 186.689 124.983C187.213 124.558 187.803 124.164 188.423 123.791C188.733 123.603 189.052 123.422 189.375 123.24C189.699 123.059 190.028 122.883 190.361 122.706C190.44 122.663 190.526 122.616 190.612 122.566L190.865 122.421L191.119 122.276C191.202 122.226 191.291 122.181 191.367 122.127C191.676 121.912 192.009 121.713 192.28 121.475C192.863 121.024 193.351 120.522 193.78 120.004C194.202 119.483 194.541 118.933 194.798 118.369C194.864 118.229 194.914 118.084 194.973 117.941C195.029 117.799 195.072 117.656 195.118 117.511C195.197 117.222 195.263 116.932 195.286 116.638L195.217 116.633Z" fill="#061A44"/>
<path d="M181.114 124.001C181.025 123.63 180.933 123.265 180.844 122.908C180.742 122.498 180.616 122.088 180.445 121.688C180.231 121.178 179.937 120.676 179.492 120.237C179.324 120.071 179.136 119.913 178.922 119.775C178.863 119.734 178.803 119.696 178.741 119.659C178.596 119.576 178.441 119.499 178.279 119.431C178.095 119.367 177.926 119.281 177.748 119.213C177.561 119.141 177.366 119.073 177.172 119.012C176.835 118.908 176.489 118.822 176.156 118.713C175.698 118.564 175.256 118.39 174.828 118.206C173.601 117.677 172.863 116.78 172.174 115.938C170.404 113.781 168.195 111.986 164.48 111.689C164.338 111.676 164.193 111.667 164.045 111.66C163.171 111.619 162.063 111.542 161.305 111.888C160.481 112.269 160.155 113.004 160.171 113.806C160.194 114.924 160.679 116.146 161.229 117.183C161.687 118.041 162.297 119.017 163.243 119.567C164.265 120.157 164.793 120.782 165.02 121.796C165.165 122.457 165.264 123.098 165.409 123.738C165.933 123.827 166.553 123.892 167.041 123.915C167.305 123.929 167.532 123.929 167.681 123.915C167.964 123.886 167.641 124.053 167.193 124.295C166.939 124.431 166.642 124.592 166.395 124.755C166.148 124.918 165.943 125.085 165.877 125.237C166.563 126.855 167.822 128.377 169.418 129.468C170.687 130.337 172.293 130.923 174.027 131.224C174.567 131.317 175.108 131.374 175.652 131.412C175.724 131.417 175.794 131.421 175.866 131.423C176.519 131.451 177.122 131.414 177.676 131.319C177.943 131.274 178.2 131.215 178.441 131.14C178.493 131.127 178.543 131.111 178.592 131.095C178.652 131.075 178.711 131.054 178.767 131.034C180.056 130.563 180.936 129.694 181.289 128.519C181.721 127.073 181.464 125.497 181.114 124.001Z" fill="#163E6D"/>
<path d="M179.482 134.93C179.235 133.707 178.902 132.492 178.493 131.292C178.477 131.242 178.457 131.19 178.441 131.141C177.63 128.811 176.506 126.561 175.065 124.381C174.313 123.25 173.502 122.134 172.685 121.024C171.445 119.349 170.298 117.846 168.274 116.549C167.173 115.845 165.957 115.254 164.618 114.779C164.516 114.77 164.457 114.679 164.318 114.713C164.49 114.793 164.648 114.867 164.809 114.942C164.855 114.958 164.905 114.969 164.945 114.987C166.046 115.51 167.087 116.081 168.02 116.744C170.031 118.17 171.323 119.985 172.484 121.78C173.727 123.705 174.963 125.633 176.018 127.612C176.667 128.829 177.224 130.068 177.676 131.319C178.233 132.861 178.635 134.427 178.866 136.01H179.647C179.568 135.469 179.502 135.029 179.482 134.93Z" fill="#0A2056"/>
<path d="M167.041 123.915C166.553 123.892 165.933 123.827 165.406 123.738C165.261 123.098 165.165 122.455 165.017 121.796C164.793 120.782 164.262 120.157 163.24 119.567C162.294 119.017 161.684 118.041 161.226 117.185C160.675 116.149 160.191 114.926 160.168 113.808C160.151 113.007 160.478 112.271 161.302 111.891C162.06 111.542 163.168 111.621 164.041 111.662C164.19 111.669 164.331 111.678 164.476 111.692C163.761 111.766 163.039 111.902 162.399 112.142C162.014 112.287 161.556 112.495 161.407 112.798C161.233 113.158 161.694 113.362 162.017 113.586C162.545 113.951 162.996 114.367 163.323 114.831C163.857 115.587 163.965 116.395 164.183 117.208C164.387 117.962 164.855 118.643 165.67 119.17C166.21 119.521 167.044 119.816 167.282 120.332C167.569 120.929 166.609 122.464 167.041 123.915Z" fill="#0A2056"/>
<path d="M175.866 131.423C175.797 131.421 175.724 131.417 175.652 131.412C175.108 131.374 174.567 131.317 174.027 131.224C172.293 130.923 170.687 130.337 169.418 129.468C167.822 128.377 166.563 126.855 165.877 125.237C166.016 124.938 166.685 124.567 167.193 124.295C167.473 124.873 168.024 125.423 169.009 125.875C172.652 127.548 172.306 126.957 173.476 129.33C173.898 130.188 174.838 130.885 175.866 131.423Z" fill="#0A2056"/>
<path d="M167.041 123.915C166.553 123.892 165.933 123.827 165.406 123.738C165.261 123.098 165.165 122.455 165.017 121.796C164.793 120.782 164.262 120.157 163.24 119.567C162.294 119.017 161.684 118.041 161.226 117.185C160.675 116.149 160.191 114.926 160.168 113.808C160.151 113.007 160.478 112.271 161.302 111.891C162.06 111.542 163.168 111.621 164.041 111.662C164.19 111.669 164.331 111.678 164.476 111.692C163.761 111.766 163.039 111.902 162.399 112.142C162.014 112.287 161.556 112.495 161.407 112.798C161.233 113.158 161.694 113.362 162.017 113.586C162.545 113.951 162.996 114.367 163.323 114.831C163.857 115.587 163.965 116.395 164.183 117.208C164.387 117.962 164.855 118.643 165.67 119.17C166.21 119.521 167.044 119.816 167.282 120.332C167.569 120.929 166.609 122.464 167.041 123.915Z" fill="#0A2056"/>
<path d="M175.866 131.423C175.797 131.421 175.724 131.417 175.652 131.412C175.108 131.374 174.567 131.317 174.027 131.224C172.293 130.923 170.687 130.337 169.418 129.468C167.822 128.377 166.563 126.855 165.877 125.237C166.016 124.938 166.685 124.567 167.193 124.295C167.473 124.873 168.024 125.423 169.009 125.875C172.652 127.548 172.306 126.957 173.476 129.33C173.898 130.188 174.838 130.885 175.866 131.423Z" fill="#0A2056"/>
<path d="M183.573 143.301C183.636 143.47 183.686 143.642 183.725 143.817C184.928 143.871 186.158 143.898 187.43 143.898C187.915 143.898 188.403 143.894 188.901 143.885C188.901 143.901 188.897 143.914 188.894 143.928C187.134 144.346 185.466 144.697 183.847 144.987V144.989C183.844 145.164 183.837 145.338 183.817 145.51C185.413 145.222 187.051 144.881 188.779 144.473C188.436 145.985 187.965 147.289 187.628 148.104C186.092 148.1 184.592 148.059 183.155 147.98C183.086 148.149 183.01 148.317 182.934 148.475C184.375 148.557 185.874 148.602 187.411 148.611C187.325 148.801 187.262 148.926 187.236 148.973C187.233 148.98 187.229 148.985 187.226 148.989C187.022 149.34 186.56 149.564 186.056 149.566C185.357 149.571 183.88 149.578 182.331 149.584C179.951 149.594 177.392 149.594 177.181 149.564C176.825 149.512 176.403 148.86 176.311 148.711C176.298 148.688 176.281 148.665 176.265 148.645C176.005 148.294 175.767 147.941 175.559 147.586C175.444 147.393 175.339 147.201 175.236 147.006C175.134 146.809 175.042 146.61 174.953 146.413C174.88 146.243 174.811 146.076 174.745 145.906C174.3 144.745 174.086 143.597 174.023 142.517V142.515C174.01 142.339 174.004 142.164 174 141.992C173.997 141.827 173.997 141.666 174.004 141.508L174.023 140.996C174.069 140.188 174.188 139.441 174.336 138.785L174.455 138.284C174.623 137.644 174.808 137.112 174.96 136.725C175.124 136.299 175.632 136.01 176.209 136.01H186.972C187.487 136.01 187.951 136.238 188.162 136.596C188.212 136.682 188.261 136.77 188.307 136.858C186.115 137.336 184.091 137.696 182.123 137.956C182.067 138.128 182.017 138.305 181.981 138.486C184.061 138.217 186.204 137.839 188.532 137.327C188.541 137.347 188.551 137.368 188.561 137.39C186.28 138.212 184.144 138.891 182.041 139.471C181.991 139.484 181.938 139.498 181.889 139.511C181.892 139.679 181.909 139.851 181.938 140.021C182.011 140.003 182.083 139.982 182.156 139.962C184.279 139.378 186.435 138.69 188.739 137.861C189.336 139.602 189.29 141.578 188.993 143.378C187.094 143.407 185.307 143.384 183.573 143.301Z" fill="#163E6D"/>
<path d="M182.123 137.956C182.067 138.128 182.017 138.305 181.981 138.486C181.978 138.488 181.975 138.488 181.971 138.488C180.122 138.726 178.325 138.846 176.532 138.846C175.8 138.846 175.068 138.826 174.336 138.785L174.455 138.284C176.928 138.411 179.37 138.312 181.915 137.983C181.985 137.974 182.054 137.965 182.123 137.956Z" fill="#0A2056"/>
<path d="M183.725 143.817C183.191 143.794 182.664 143.765 182.136 143.731C179.327 143.547 176.67 143.151 174.023 142.517V142.515C174.01 142.339 174.003 142.164 174 141.992C176.667 142.637 179.337 143.04 182.163 143.224C182.631 143.253 183.099 143.28 183.573 143.301C183.636 143.47 183.686 143.642 183.725 143.817Z" fill="#0A2056"/>
<path d="M183.155 147.98C183.086 148.149 183.01 148.317 182.934 148.475C182.687 148.464 182.443 148.448 182.202 148.432C179.908 148.283 177.729 148.004 175.559 147.586C175.444 147.393 175.339 147.201 175.236 147.006C177.524 147.468 179.812 147.767 182.232 147.925C182.535 147.946 182.845 147.964 183.155 147.98Z" fill="#0A2056"/>
<path d="M181.938 140.021C179.252 140.747 176.654 141.232 174.004 141.508L174.023 140.996C176.651 140.72 179.229 140.233 181.889 139.511C181.892 139.679 181.909 139.851 181.938 140.021Z" fill="#0A2056"/>
<path d="M183.847 144.989C183.844 145.164 183.837 145.338 183.817 145.51C183.234 145.614 182.657 145.709 182.083 145.8C179.654 146.178 177.317 146.379 174.953 146.413C174.88 146.243 174.811 146.076 174.745 145.906C177.158 145.883 179.538 145.684 182.017 145.297C182.621 145.202 183.231 145.1 183.847 144.989Z" fill="#0A2056"/>
<path d="M188.53 137.327C186.203 137.839 184.06 138.217 181.98 138.486C182.016 138.305 182.066 138.128 182.122 137.956C184.09 137.696 186.114 137.336 188.306 136.858C188.389 137.012 188.464 137.166 188.53 137.327Z" fill="#03122B"/>
<path d="M188.739 137.861C186.435 138.69 184.279 139.378 182.156 139.962C182.083 139.982 182.011 140.003 181.938 140.021C181.909 139.851 181.892 139.679 181.889 139.511C181.938 139.498 181.991 139.484 182.041 139.471C184.144 138.891 186.28 138.212 188.561 137.39C188.627 137.544 188.686 137.7 188.739 137.861Z" fill="#03122B"/>
<path d="M188.993 143.378C188.967 143.547 188.934 143.717 188.901 143.885C188.403 143.894 187.915 143.898 187.43 143.898C186.158 143.898 184.928 143.871 183.725 143.817C183.686 143.642 183.636 143.47 183.573 143.301C185.307 143.384 187.094 143.407 188.993 143.378Z" fill="#03122B"/>
<path d="M188.894 143.928C188.858 144.111 188.818 144.294 188.779 144.473C187.051 144.881 185.413 145.222 183.817 145.51C183.837 145.338 183.844 145.164 183.847 144.989V144.987C185.466 144.697 187.134 144.346 188.894 143.928Z" fill="#03122B"/>
<path d="M187.628 148.104C187.546 148.303 187.473 148.475 187.411 148.611C185.874 148.602 184.375 148.557 182.934 148.475C183.01 148.317 183.086 148.149 183.155 147.98C184.592 148.059 186.092 148.1 187.628 148.104Z" fill="#03122B"/>
<path d="M188.307 136.858C186.115 137.336 184.091 137.696 182.123 137.956C182.36 137.216 182.749 136.551 183.135 136.01H186.972C187.486 136.01 187.951 136.238 188.162 136.596C188.212 136.682 188.261 136.77 188.307 136.858Z" fill="#0A2056"/>
<path d="M182.041 139.471C181.991 139.484 181.938 139.498 181.889 139.511C181.879 139.16 181.912 138.816 181.981 138.486C184.061 138.217 186.204 137.839 188.532 137.327C188.541 137.347 188.551 137.368 188.561 137.39C186.28 138.212 184.144 138.891 182.041 139.471Z" fill="#0A2056"/>
<path d="M182.934 148.475C184.375 148.557 185.874 148.602 187.411 148.611C187.325 148.801 187.262 148.926 187.236 148.973C187.233 148.98 187.229 148.985 187.226 148.989C187.022 149.34 186.56 149.564 186.056 149.566C185.357 149.571 183.88 149.578 182.331 149.584C182.522 149.268 182.733 148.892 182.934 148.475Z" fill="#0A2056"/>
<path d="M188.779 144.473C188.436 145.985 187.965 147.289 187.628 148.104C186.092 148.1 184.592 148.059 183.155 147.98C183.475 147.233 183.735 146.384 183.817 145.51C185.413 145.222 187.051 144.881 188.779 144.473Z" fill="#0A2056"/>
<path d="M188.901 143.885C188.901 143.9 188.897 143.914 188.894 143.928C187.134 144.346 185.466 144.697 183.847 144.987C183.85 144.595 183.814 144.204 183.725 143.817C184.928 143.871 186.158 143.898 187.43 143.898C187.915 143.898 188.403 143.894 188.901 143.885Z" fill="#0A2056"/>
<path d="M188.993 143.378C187.094 143.407 185.307 143.384 183.573 143.301C183.415 142.85 183.178 142.411 182.845 141.992C182.324 141.336 182.044 140.67 181.938 140.021C182.011 140.003 182.083 139.982 182.156 139.962C184.279 139.378 186.435 138.69 188.739 137.861C189.336 139.602 189.29 141.578 188.993 143.378Z" fill="#0A2056"/>
<path d="M159.195 137.551C158.575 137.743 157.827 137.929 157.649 138.359C157.461 138.81 158.028 139.237 158.411 139.64C158.859 140.111 159.07 140.664 159.054 141.211H158.707C158.704 140.761 158.361 140.349 157.877 140.009C157.682 139.871 157.468 139.747 157.24 139.636C156.453 139.251 155.536 138.993 154.732 138.626C154.244 138.404 153.756 138.054 153.911 137.689C154.003 137.474 154.297 137.327 154.56 137.184C155.282 136.795 155.935 136.279 155.974 135.665C156.014 135.104 155.529 134.574 154.949 134.149C154.372 133.721 153.68 133.357 153.163 132.897C152.642 132.44 152.309 131.842 152.576 131.313C152.724 131.023 153.027 130.794 153.41 130.618C153.891 130.396 154.504 130.258 155.094 130.185C156.614 129.997 158.249 130.099 159.637 130.563C164.054 132.037 163.323 136.252 159.195 137.551Z" fill="#4F779E"/>
<path d="M159.884 141.214C159.779 142.277 159.815 143.543 160.319 144.528C160.379 144.643 160.431 144.761 160.474 144.881C160.847 145.845 160.771 146.877 160.474 147.814C160.28 148.43 159.993 149.005 159.673 149.496H154.455C154.069 149.496 153.756 149.279 153.756 149.016V141.691C153.756 141.426 154.069 141.211 154.455 141.211L159.884 141.214Z" fill="#163E6D"/>
<path d="M164.407 142.592H162.841V141.691C162.841 141.429 162.525 141.214 162.146 141.214H159.812C159.706 142.278 159.743 143.543 160.247 144.528C160.306 144.643 160.359 144.761 160.402 144.881C160.774 145.845 160.699 146.877 160.402 147.814C160.207 148.43 159.921 149.005 159.601 149.496H162.146C162.383 149.496 162.594 149.41 162.723 149.283C162.756 149.249 162.782 149.215 162.802 149.177C162.808 149.166 162.812 149.152 162.818 149.141C162.835 149.102 162.841 149.062 162.841 149.019V148.738H164.407C164.892 148.738 165.284 148.469 165.284 148.136V143.194C165.284 142.862 164.892 142.592 164.407 142.592ZM164.625 148.136C164.625 148.217 164.526 148.285 164.407 148.285H162.841V143.045H164.407C164.526 143.045 164.625 143.113 164.625 143.194V148.136Z" fill="#0A2056"/>
<path d="M76.6587 202.58C76.4312 202.818 75.4522 202.836 74.3412 202.789C73.5863 202.755 72.772 202.693 72.0929 202.65C70.3523 202.54 69.7656 202.637 68.2359 202.184C66.7063 201.731 61.9988 199.37 61.6428 198.438C61.3593 197.693 62.6944 196.785 63.9965 195.647H64.0031C64.8701 195.221 65.5393 194.639 66.0602 193.949C65.9877 193.931 65.9118 193.911 65.836 193.892C65.8195 193.888 65.8031 193.883 65.7866 193.879C65.7206 193.861 65.6514 193.843 65.5822 193.825C65.8756 193.22 65.958 192.618 65.958 192.143C65.958 191.563 65.8426 191.165 65.8426 191.165L67.2832 191.468L70.893 192.231L72.2182 192.512L73.072 192.693C72.5116 193.186 72.1358 193.716 71.6842 194.232C71.5028 194.443 71.3051 194.646 71.0776 194.848C70.6194 195.248 70.1611 195.651 69.7029 196.052C68.9249 196.74 69.5018 197.639 69.8381 198.384C70.0524 198.854 70.3095 199.588 70.9721 199.862C71.6116 200.124 72.4622 200.158 73.1874 200.174C76.7082 200.265 77.0411 202.182 76.6587 202.58Z" fill="#D65B56"/>
<path d="M93.7317 168.135C93.2669 169.088 92.7394 170.025 92.1098 170.933C90.867 172.723 89.3506 174.419 87.8968 176.132C84.798 179.786 81.9695 183.106 79.3388 186.151C77.8158 187.917 76.2862 189.68 74.7434 191.439C74.0511 192.229 73.4182 193.107 72.594 193.836C72.027 194.336 70.5831 194.277 69.9304 194.218C70.7348 193.917 71.1633 193.311 71.6314 192.799C71.7171 192.704 71.8028 192.607 71.8886 192.512C72.4885 191.839 73.072 191.16 73.6456 190.481C75.9895 187.724 78.396 185.189 80.6575 182.402C83.0277 179.485 85.2463 176.306 87.5671 173.375C88.8 171.811 90.1879 170.26 91.2263 168.628C91.9219 167.535 93.4251 165.572 92.1889 163.27C93.913 164.742 94.8097 165.921 93.7317 168.135Z" fill="#811E13"/>
<path d="M74.3412 202.789C74.3214 202.888 74.2819 202.97 74.2324 203.022C73.85 203.42 71.338 203.196 69.6667 203.092C67.9228 202.981 67.3393 203.078 65.8097 202.623C64.7185 202.302 62.012 201.007 60.4198 199.954C61.0164 198.87 61.5406 196.847 63.9965 195.647H64.0031C64.8701 195.221 65.5393 194.639 66.0602 193.949C65.9877 193.931 65.9119 193.911 65.836 193.892V193.89C65.8163 193.886 65.7998 193.881 65.7866 193.879C65.7207 193.861 65.6514 193.843 65.5822 193.825C64.8537 193.632 64.0691 193.388 63.4988 193.093C63.6043 192.249 63.4163 191.604 63.4163 191.604L65.958 192.143L66.9602 192.353L70.3985 193.08L71.0117 193.209C70.6556 193.521 70.2996 193.834 69.9469 194.148C69.9436 194.148 69.9436 194.148 69.9436 194.151C69.8546 194.225 69.7689 194.3 69.6832 194.375C69.3403 194.678 68.9942 194.984 68.648 195.287C68.1931 195.688 67.7349 196.09 67.2799 196.493C66.5019 197.179 67.0723 198.078 67.4118 198.825C67.6228 199.296 67.8832 200.029 68.5458 200.303C69.1854 200.566 70.0359 200.597 70.7611 200.615C73.8105 200.692 74.4665 202.141 74.3412 202.789Z" fill="#EF9292"/>
<path d="M65.836 193.893C65.8196 193.888 65.8031 193.883 65.7866 193.879C65.7207 193.861 65.6514 193.843 65.5822 193.825C64.8537 193.632 64.0691 193.388 63.4988 193.093C63.4163 193.741 63.1658 194.504 62.5197 195.187C61.0362 196.76 58.8605 197.949 59.2165 198.879C59.2462 198.958 59.4835 199.176 59.7505 199.4L59.8461 199.481L60.0373 199.64L60.1297 199.715C60.2483 199.814 60.3538 199.9 60.4198 199.954C61.0164 198.87 61.5406 196.847 63.9965 195.647H64.0031C64.8701 195.221 65.5393 194.639 66.0602 193.949C65.9877 193.931 65.9119 193.911 65.836 193.893Z" fill="#D65B56"/>
<path d="M91.5626 168.626C90.5242 170.258 89.1363 171.811 87.9034 173.373C85.5793 176.306 83.3607 179.485 80.9904 182.402C80.7827 182.656 80.5784 182.909 80.3707 183.158C78.2905 185.655 76.1082 187.975 73.9786 190.481C73.4017 191.16 72.8215 191.839 72.2182 192.512C72.1358 192.607 72.0501 192.704 71.9644 192.799C71.4963 193.311 71.0677 193.917 70.2634 194.218H70.2601C70.2436 194.228 70.2271 194.234 70.2106 194.241C70.0425 194.3 69.8645 194.345 69.6832 194.375C68.8656 194.52 67.9492 194.4 67.1745 194.214C66.8943 194.146 66.502 194.055 66.0602 193.949C65.9086 193.911 65.747 193.87 65.5822 193.825C64.8537 193.632 64.0691 193.388 63.4988 193.093C62.8428 192.756 62.4669 192.353 62.7768 191.889C64.013 190.044 65.0317 188.374 65.4932 186.373C65.747 185.282 66.3272 184.087 66.5943 182.998C67.1184 180.879 67.6722 178.704 69.0799 176.761C69.9436 175.569 70.6425 174.64 71.2062 173.896C72.9072 171.652 73.4017 171.102 73.5896 170.208C73.6325 170.009 73.6588 169.792 73.6819 169.536C73.8401 167.75 73.1314 167.313 66.7294 166.783C63.6603 166.53 44.672 166.713 34.6009 165.923C31.6175 165.69 29.4154 165.371 28.6407 164.932C28.0144 164.576 27.4506 164.187 26.9463 163.789C26.9331 163.78 26.9166 163.766 26.9001 163.755C26.5738 163.494 26.2672 163.23 25.9837 162.971C25.9837 162.965 25.9738 162.96 25.9705 162.956C25.9309 162.915 25.8947 162.872 25.8584 162.831C25.8716 162.831 25.8881 162.829 25.9013 162.829C25.9276 162.827 25.9507 162.824 25.9771 162.822C26.0133 162.82 26.0529 162.818 26.0892 162.813C26.1122 162.811 26.132 162.811 26.1551 162.809C26.2045 162.804 26.2573 162.799 26.3067 162.797C26.3166 162.797 26.3265 162.795 26.3364 162.795C26.732 162.759 27.1045 162.72 27.4572 162.675C31.4263 162.181 32.745 161.142 32.8241 161.077C32.8274 161.075 32.8274 161.075 32.8274 161.075C33.9614 160.377 34.8119 159.501 35.7679 158.696C37.5547 157.192 39.9777 156.099 42.371 155.101C44.1544 154.361 45.9082 153.557 47.9092 153.12C49.3993 152.797 50.9421 152.756 52.4849 152.665C52.4948 152.665 52.5047 152.663 52.5179 152.663C52.5244 152.663 52.5343 152.661 52.5409 152.661C53.3552 152.6 54.3508 152.83 55.1815 152.919C55.2309 152.923 55.2804 152.928 55.3265 152.932C55.3331 152.932 55.3397 152.935 55.3463 152.935C55.5342 152.948 55.6958 152.95 55.8375 152.939L56.0188 152.975C56.0221 152.975 56.0221 152.975 56.0221 152.975L56.1309 152.998L58.3198 153.424C58.3198 153.424 83.8684 157.364 88.3187 159.703C90.145 160.66 91.3153 161.609 92.0274 162.514C92.2285 162.768 92.3933 163.019 92.5252 163.266V163.268C93.7614 165.57 92.2615 167.533 91.5626 168.626Z" fill="#D15437"/>
<path d="M122.791 147.905H120.533C120.457 147.905 120.394 147.862 120.394 147.81V147.667C120.394 147.615 120.457 147.572 120.533 147.572H122.791C122.867 147.572 122.93 147.615 122.93 147.667V147.81C122.933 147.862 122.87 147.905 122.791 147.905Z" fill="#F4F4F4"/>
<path d="M125.699 147.905H123.441C123.365 147.905 123.302 147.862 123.302 147.81V147.667C123.302 147.615 123.365 147.572 123.441 147.572H125.699C125.774 147.572 125.837 147.615 125.837 147.667V147.81C125.837 147.862 125.774 147.905 125.699 147.905Z" fill="#F4F4F4"/>
<path d="M128.603 147.905H126.345C126.269 147.905 126.206 147.862 126.206 147.81V147.667C126.206 147.615 126.269 147.572 126.345 147.572H128.603C128.679 147.572 128.741 147.615 128.741 147.667V147.81C128.741 147.862 128.679 147.905 128.603 147.905Z" fill="#F4F4F4"/>
<path d="M131.507 147.905H129.249C129.173 147.905 129.111 147.862 129.111 147.81V147.667C129.111 147.615 129.173 147.572 129.249 147.572H131.507C131.583 147.572 131.646 147.615 131.646 147.667V147.81C131.646 147.862 131.583 147.905 131.507 147.905Z" fill="#F4F4F4"/>
<path d="M78.5411 165.283C77.7169 167.094 76.3983 167.829 75.739 169.527C75.6269 169.819 75.5445 170.172 75.4785 170.568C75.1555 172.476 75.1819 175.376 73.6786 177.11C71.8655 179.204 70.7941 179.147 69.6403 181.128C68.4865 183.109 68.4865 185.202 67.992 186.957C67.4975 188.711 66.0602 193.949 66.0602 193.949C65.9086 193.911 65.747 193.87 65.5822 193.825C64.8537 193.632 64.0691 193.388 63.4988 193.093C62.8427 192.756 62.4669 192.353 62.7768 191.889C64.013 190.044 65.0317 188.374 65.4932 186.373C65.747 185.282 66.3272 184.087 66.5943 182.998C67.1184 180.879 67.6722 178.704 69.0799 176.761C69.9436 175.569 70.6425 174.64 71.2062 173.896C72.9072 171.652 73.4017 171.102 73.5896 170.208C73.6325 170.009 73.6588 169.792 73.6819 169.536C73.8401 167.75 73.1314 167.313 66.7294 166.783C63.6603 166.53 44.672 166.713 34.6009 165.923C31.6175 165.69 29.4154 165.371 28.6407 164.932C28.0144 164.576 27.4506 164.187 26.9463 163.789C26.9331 163.78 26.9166 163.766 26.9001 163.755C26.5738 163.494 26.2672 163.23 25.9837 162.971C25.9837 162.965 25.9738 162.96 25.9705 162.956C25.9309 162.915 25.8947 162.872 25.8584 162.831C25.8716 162.831 25.8881 162.829 25.9013 162.829C25.9276 162.827 25.9507 162.824 25.9771 162.822C26.0133 162.82 26.0529 162.818 26.0892 162.813C26.1122 162.811 26.132 162.811 26.1551 162.809C26.2045 162.804 26.2573 162.799 26.3067 162.797C26.3166 162.797 26.3265 162.795 26.3364 162.795C26.732 162.759 27.1045 162.72 27.4572 162.675C31.4263 162.181 32.745 161.142 32.8241 161.077C32.8274 161.075 32.8274 161.075 32.8274 161.075C32.8274 161.075 34.9438 163.8 41.7018 163.268C48.4598 162.736 51.519 161.708 55.1815 162.675C55.7089 162.815 56.2496 162.962 56.7968 163.112C60.0472 164.004 63.6537 164.984 67.7448 164.886C72.5248 164.773 79.3652 163.472 78.5411 165.283Z" fill="#811E13"/>
<path d="M125.175 141.863C124.977 141.519 122.801 139.869 121.107 139.468C119.409 139.065 114.968 138.871 114.968 138.871C114.968 138.871 92.4757 138.264 90.534 137.868C89.0637 137.567 87.699 136.587 86.5715 135.919C84.8639 134.907 83.2881 133.805 81.6135 132.77C80.0311 131.79 78.1422 131.084 76.4345 130.219C75.7126 129.85 75.0071 129.47 74.3214 129.076C74.1698 128.99 74.0214 128.904 73.8731 128.818C73.9258 128.877 73.9819 128.938 74.0379 128.997C74.0478 129.008 73.8171 129.074 73.8072 129.085C73.7083 129.219 73.6423 129.366 73.5401 129.499C73.227 129.918 72.8742 130.314 72.5545 130.733C72.327 131.03 72.1259 131.324 71.8886 131.618C71.6215 131.949 71.282 132.272 71.0084 132.601C70.6128 133.083 70.3754 133.608 70.0227 133.995C70.0029 134.02 69.9798 134.045 69.9568 134.07C70.0557 134.097 70.1545 134.126 70.2534 134.153C70.2864 134.162 70.3194 134.174 70.3523 134.183C70.3919 134.194 70.4315 134.205 70.471 134.219C71.2853 134.457 72.0666 134.719 72.6632 135.038C72.7918 135.109 72.9138 135.181 73.0226 135.256C73.3588 135.487 74.2126 135.591 74.572 135.797C75.5115 136.333 76.8895 136.544 77.9872 136.879C78.0169 136.888 78.0433 136.897 78.0729 136.904C79.2465 137.261 80.4234 137.621 81.5937 137.986C83.6178 138.613 85.665 139.235 87.7023 139.871C87.8341 139.912 87.966 139.953 88.0978 139.994C90.8208 140.847 93.5372 141.725 96.1877 142.674C96.3162 142.719 96.4415 142.766 96.5668 142.812C97.8063 143.258 99.0293 143.722 100.233 144.206C100.447 144.29 100.658 144.376 100.869 144.462C100.948 144.451 101.03 144.442 101.109 144.43C101.723 144.349 102.329 144.267 102.939 144.177C105.751 143.776 108.537 143.292 111.256 142.667C111.286 142.66 111.319 142.651 111.349 142.642C111.378 142.635 111.411 142.626 111.441 142.615C111.761 142.52 112.077 142.375 112.43 142.264L114.616 141.399C114.817 141.32 115.064 141.32 115.268 141.399C115.39 141.447 115.512 141.494 115.634 141.546C115.651 141.553 115.667 141.56 115.684 141.567C116.152 141.766 116.6 141.988 117.025 142.232C117.25 142.359 117.477 142.488 117.691 142.622C117.932 142.771 118.169 142.936 118.473 143.027C118.519 143.04 118.568 143.054 118.618 143.063C119.079 143.154 119.521 143.004 119.92 142.862C120.259 142.742 120.605 142.61 120.961 142.499C121.047 142.472 121.139 142.443 121.238 142.416C121.512 142.336 121.809 142.266 122.089 142.264C122.989 142.259 123.764 142.809 124.001 143.375C124.08 143.565 124.097 143.767 124.04 143.962C123.605 145.449 124.832 146.357 124.99 145.829C125.138 145.333 125.372 142.205 125.175 141.863Z" fill="#EF9292"/>
<path d="M61.5274 138.669C59.8198 138.463 52.8112 135.754 47.7543 133.08C46.6697 132.508 45.6708 131.944 44.8302 131.417C40.0699 128.44 39.3579 129.533 39.3579 129.533L39.8491 132.542C39.9249 135.428 39.2161 138.325 38.5799 141.168C38.3326 142.273 38.0722 143.378 37.8546 144.487C37.647 145.539 37.6074 146.54 37.6074 147.602C37.6074 148.663 37.1096 149.612 36.4239 150.551C35.3888 151.968 34.0867 153.285 32.9263 154.655C32.5439 155.108 32.1713 155.565 31.8285 156.033C31.3736 156.661 31.1428 157.24 31.0703 157.77C30.7769 159.827 32.8274 161.075 32.8274 161.075C33.9647 160.377 34.8119 159.499 35.7679 158.696C37.558 157.192 39.9776 156.101 42.371 155.101C44.0687 154.392 45.75 153.63 47.6389 153.181C48.6971 152.93 49.808 152.803 50.9223 152.735C51.9607 152.672 53.009 152.688 54.0442 152.781C54.4694 152.819 54.8881 152.871 55.3067 152.935C55.6199 152.982 56.1375 153.15 56.4375 152.993C56.8495 152.778 56.9517 152.362 57.1067 152.045C57.8814 150.454 58.666 148.876 59.167 147.23C59.4835 146.189 59.7176 145.134 59.8791 144.063C60.0275 143.068 60.1758 142.069 60.3241 141.073C60.3274 141.06 60.334 141.046 60.3373 141.035L60.5846 141.146L61.2274 141.433C61.9955 140.743 62.668 140.064 63.2548 139.405C62.6878 139.124 62.2032 138.749 61.5274 138.669Z" fill="#EAC8C7"/>
<path d="M74.0676 128.972C74.0676 128.972 74.0412 129.008 73.9918 129.076C73.7215 129.438 72.7819 130.701 71.76 131.978C71.549 132.243 71.3315 132.51 71.1205 132.768L71.1139 132.777L71.0743 132.825C70.6985 133.28 70.3326 133.707 70.0029 134.067C70.0029 134.07 70.0029 134.07 70.0029 134.07C69.9963 134.074 69.9897 134.081 69.9864 134.085C69.8843 134.056 69.7886 134.027 69.6963 133.995C69.693 133.995 69.6931 133.995 69.6931 133.995C69.4854 133.925 69.3041 133.848 69.1557 133.76C68.7436 133.515 68.3744 133.255 68.0382 132.988C68.025 132.981 68.0118 132.972 68.0019 132.963C67.6195 132.664 67.2734 132.352 66.9371 132.037C66.9206 132.021 66.9008 132.003 66.8844 131.987L66.8811 131.983C66.225 131.362 65.6185 130.729 64.8965 130.131L64.8932 130.126L64.4976 129.755C64.4943 129.753 64.491 129.751 64.491 129.751L63.179 128.526C63.2252 128.268 63.268 128.008 63.3076 127.75C63.3306 127.616 63.3504 127.483 63.3702 127.349C63.3966 127.161 63.423 126.975 63.4493 126.788C63.479 126.588 63.5054 126.391 63.5284 126.192C63.5614 125.932 63.5944 125.674 63.6207 125.414C63.7559 124.18 63.5779 122.953 63.3603 121.724C63.3504 121.676 63.3438 121.627 63.3339 121.574C63.3339 121.561 63.3306 121.55 63.3306 121.541C63.3241 121.498 63.3208 121.475 63.3175 121.459C63.3142 121.416 63.3175 121.416 63.2944 121.296C63.2911 121.282 63.2911 121.269 63.2878 121.255C65.0185 122.319 67.636 123.879 69.9996 125.554C71.4996 126.618 72.8973 127.729 73.8995 128.789C73.8995 128.789 73.8995 128.789 73.9028 128.791C73.9588 128.852 74.0149 128.911 74.0676 128.972Z" fill="#EAC8C7"/>
<path d="M147.436 129.407L146.784 129.196C146.322 129.047 145.775 129.182 145.557 129.499L133.043 147.735H103.694C103.183 147.735 102.771 148.018 102.771 148.369V148.865C102.771 149.215 103.183 149.498 103.694 149.498H134.095C134.121 149.498 134.148 149.494 134.174 149.494C134.197 149.492 134.22 149.492 134.243 149.489C134.296 149.483 134.346 149.474 134.395 149.462C134.398 149.462 134.402 149.462 134.402 149.46C134.665 149.397 134.873 149.254 134.965 149.073L147.881 130.251C148.096 129.932 147.898 129.556 147.436 129.407Z" fill="#B7C6E5"/>
<path d="M54.3343 113.955C54.3343 113.955 54.0145 114.2 53.309 114.295C51.163 114.578 46.7323 115.506 44.7511 118.03C42.1171 121.384 37.6997 121.382 35.3558 123.575C33.012 125.769 36.058 128.327 34.7789 131.498C33.4999 134.669 30.8461 139.869 28.9275 147.07C27.4506 152.613 25.1298 156.022 25.8815 159.343C25.8815 159.343 25.8848 159.368 25.8947 159.415C25.9639 159.768 26.3034 161.358 27.0913 162.311C27.2034 162.449 27.3254 162.571 27.4572 162.677C27.266 162.702 27.0847 162.722 26.9133 162.741C26.2935 162.806 25.8584 162.833 25.8584 162.833C24.7277 161.982 24.1244 159.762 23.92 158.822C23.9035 158.75 23.887 158.686 23.8771 158.63C23.8706 158.607 23.8673 158.582 23.8607 158.557C23.8409 158.451 23.8277 158.388 23.8277 158.388L23.831 158.39C23.6826 157.527 23.7123 156.64 23.775 155.778C23.7947 155.461 23.8277 155.142 23.8706 154.827C24.0848 153.179 24.5299 151.552 25.0013 149.929C26.4584 144.86 28.5055 139.973 28.5913 134.769C28.6242 132.612 28.4825 130.459 28.3176 128.306C28.1594 126.233 29.689 124.377 31.5648 122.833C33.4076 121.314 35.1613 119.702 37.1162 118.249C40.9963 115.368 45.0445 114.557 52.0234 112.921C52.1124 112.9 52.2014 112.878 52.2904 112.857C52.3728 112.839 52.4585 112.844 52.5409 112.864C52.6662 112.893 52.7849 112.959 52.8739 113.027L54.3343 113.955Z" fill="#EAC8C7"/>
<path d="M113.524 146.239L119.438 145.41C119.438 145.41 119.831 145.338 120.094 145.41C120.358 145.483 120.361 145.483 120.361 145.483C120.361 145.483 122.883 146.434 122.92 146.569C122.956 146.703 123.114 147.226 120.754 146.325C120.754 146.325 120.329 146.209 120.025 146.223C119.722 146.237 118.014 146.868 118.014 146.868L115.637 147.07L113.524 146.239Z" fill="#D65B56"/>
<path d="M71.16 132.666L70.026 133.995C69.9732 133.975 69.9205 133.954 69.8678 133.932C69.4689 133.766 68.4898 133.108 67.8239 132.571L67.2668 132.037C67.2503 132.021 67.2305 132.003 67.214 131.987L67.2107 131.983L65.602 130.38C67.2404 131.385 71.16 132.666 71.16 132.666Z" fill="#D3A7A7"/>
<path d="M112.756 149.496C112.756 149.496 114.777 147.506 116.092 147.384C116.666 147.33 117.296 147.466 117.84 147.577C118.581 147.726 119.307 147.916 120.019 148.118C120.5 148.253 120.981 148.401 121.446 148.561C121.769 148.672 122.109 148.761 122.405 148.903C122.554 148.976 122.649 149.041 122.692 149.163C122.705 149.197 122.738 149.53 122.719 149.53C122.719 149.532 112.756 149.496 112.756 149.496Z" fill="#EBEBF7"/>
<path d="M122.972 148.448C122.827 148.272 122.016 147.864 121.143 147.445C120.388 147.085 119.584 146.714 119.129 146.474C118.967 146.39 118.845 146.32 118.792 146.275C118.397 145.956 118.021 145.922 118.021 145.922C118.021 145.922 117.23 145.897 116.099 145.879C113.729 145.838 109.868 145.818 108.606 146.08C107.294 146.352 104.577 145.616 103.081 145.152C102.448 144.958 102.033 144.813 102.033 144.813C101.765 144.7 101.495 144.589 101.228 144.478C100.292 144.095 99.3425 143.724 98.3832 143.364L98.3799 143.362C98.3766 143.362 98.3766 143.362 98.3733 143.362C93.0658 141.368 87.4418 139.699 81.9563 138.002C80.7564 137.628 79.5498 137.261 78.3466 136.895C77.4895 136.634 76.6291 136.424 75.8016 136.116C74.9939 135.813 74.2061 135.482 73.405 135.17C72.8149 134.939 72.2182 134.717 71.6018 134.522C71.0776 134.357 70.5304 134.194 70.026 133.995C69.9733 133.975 69.9205 133.954 69.8678 133.932C69.4689 133.766 68.4898 133.108 67.8239 132.571C67.5437 132.345 67.3162 132.141 67.214 132.003C67.2041 132.082 67.1547 132.469 66.9767 133.087C66.8118 133.637 66.4031 134.285 65.9745 135.149C65.9481 135.204 65.8393 135.36 65.8097 135.419C65.5789 135.869 65.1141 136.261 64.7811 136.777C64.2702 137.569 63.479 138.253 62.6812 139.151C62.6812 139.151 69.1854 142.705 72.3633 142.705C75.5412 142.705 79.1213 142.234 82.9123 143.498C86.7034 144.761 87.4023 144.912 87.4023 144.912C87.4023 144.912 90.2044 145.983 94.6548 145.983C99.1051 145.985 102.445 146.508 105.576 147.45C108.708 148.394 116.033 147.916 116.033 147.916C116.04 147.914 116.05 147.909 116.056 147.907C116.059 147.905 116.063 147.905 116.063 147.905C116.452 147.755 116.88 147.649 117.388 147.626C118.08 147.595 119.762 148.405 120.632 148.609C121.004 148.695 121.538 148.749 122.01 148.751C122.643 148.756 123.157 148.668 122.972 148.448Z" fill="#EF9292"/>
<path d="M74.7302 98.5807C74.7302 98.5807 71.7996 100.018 71.6281 101.308C71.4567 102.599 70.0062 103.631 69.8974 104.369C69.7886 105.107 68.0184 106.361 68.0184 107.042C68.0184 107.723 67.2799 110.288 68.9381 111.807C70.5963 113.328 75.8214 115.18 76.9653 115.304C78.1125 115.429 78.6597 115.664 79.0586 115.048C79.4542 114.433 81.7915 109.863 82.7574 108.665C83.7233 107.468 85.4672 106.952 85.1738 105.992C84.8771 105.032 81.0926 97.7522 74.7302 98.5807Z" fill="#EF9292"/>
<path d="M67.2668 132.037C67.2503 132.021 67.2305 132.003 67.2107 131.983C66.9668 131.74 66.7228 131.498 66.4789 131.256C65.9448 130.724 65.3877 130.203 64.8207 129.687C64.5932 129.479 64.379 129.257 64.1416 129.053C63.924 128.868 63.6603 128.698 63.568 128.463C63.4361 128.125 63.6504 127.693 63.6999 127.349C63.7262 127.161 63.7526 126.975 63.779 126.788C63.8086 126.588 63.835 126.391 63.8581 126.192C63.8911 125.932 63.9207 125.674 63.9504 125.414C64.0856 124.18 63.9075 122.953 63.69 121.724C63.6801 121.676 63.6735 121.627 63.6636 121.574C63.6636 121.561 63.6603 121.55 63.6603 121.541C63.6537 121.513 63.6504 121.486 63.6471 121.459C63.6405 121.407 63.6306 121.353 63.624 121.296C63.6207 121.282 63.6207 121.269 63.6174 121.255C63.601 121.144 63.5845 121.029 63.5614 120.911C63.4955 120.542 63.3933 120.157 63.2054 119.829C63.0867 119.616 62.9285 119.426 62.7142 119.281L57.1858 115.768L54.3343 113.955C54.3343 113.955 53.8925 113.985 53.1871 114.077C53.1211 114.086 53.0519 114.095 52.9794 114.107C50.7575 114.417 46.3961 115.322 44.4775 117.769C41.8435 121.124 37.37 121.126 35.0229 123.322C32.679 125.515 35.4514 128.248 34.1724 131.419C32.8933 134.59 29.9066 139.808 27.988 147.006C26.5111 152.55 24.9156 156.02 25.6705 159.341C25.6705 159.341 25.6903 159.558 25.7001 159.605C25.7694 159.959 25.6903 161.523 26.4814 162.476C26.5935 162.612 27.3254 162.571 27.4572 162.675C28.9341 162.55 30.0352 162.333 31.3307 161.817C31.3373 161.815 31.3406 161.815 31.3439 161.812C31.3868 161.794 31.4296 161.776 31.4758 161.758C31.9801 161.57 32.4417 161.353 32.7911 161.102C32.8076 161.09 32.8175 161.081 32.8241 161.072C32.7383 160.998 31.2681 159.682 31.5516 157.684C31.6241 157.154 31.9043 156.812 32.3625 156.185C34.6009 153.113 38.9128 149.659 38.3788 147.341C37.9371 145.406 40.3073 137.451 40.1787 132.501L39.8919 130.043C39.8919 130.043 39.6282 128.818 44.6687 131.541C45.5621 132.023 46.5082 132.666 47.596 133.239C50.5366 134.796 53.7607 136.098 57.0309 137.3C59.0451 138.04 61.1021 138.866 63.2482 139.409C64.046 138.511 64.6855 137.651 65.1965 136.858C65.5295 136.342 65.8064 135.856 66.0371 135.405C66.0668 135.346 66.0965 135.29 66.1228 135.235C66.5613 134.353 66.9503 133.726 67.2437 133.302C67.3492 133.151 67.4415 133.026 67.5206 132.924C67.7151 132.677 67.8239 132.571 67.8239 132.571L67.2668 132.037Z" fill="#EFEFEF"/>
<path d="M116.03 147.914C115.631 148.07 115.275 148.269 114.916 148.466C114.362 148.772 113.805 149.075 113.089 149.211C111.899 149.435 110.63 148.969 109.41 148.842C102.998 148.179 96.5931 147.5 90.1912 146.821C88.4209 146.635 86.6506 146.447 84.8837 146.257C83.7661 146.141 82.6486 146.022 81.5344 145.904C81.0761 145.856 80.6212 145.806 80.163 145.757C78.8542 145.619 77.5488 145.481 76.2433 145.34C73.8929 145.089 71.4534 145.098 69.1854 144.555C67.2173 144.084 65.3844 143.346 63.6603 142.549C62.912 142.203 62.0878 141.827 61.2208 141.435L63.2482 139.409C63.2482 139.409 69.3832 142.477 72.5611 142.477C75.739 142.477 79.53 142.101 83.3211 143.364C87.1122 144.627 87.1122 144.627 87.1122 144.627C87.1122 144.627 90.0791 145.7 94.5295 145.7C98.9799 145.702 102.606 146.363 105.738 147.305C108.87 148.249 116.03 147.914 116.03 147.914Z" fill="#D65B56"/>
<path d="M119.138 141.537C118.898 141.417 118.644 141.311 118.377 141.22L118.37 141.216H118.367C116.712 140.648 114.616 140.621 112.737 140.84C110.234 141.134 107.795 141.775 105.26 141.741C102.514 141.707 99.893 140.949 97.1668 140.752C94.5328 140.562 91.8263 140.555 89.2978 139.948C86.3803 139.249 84.0859 137.716 81.6102 136.446C78.6433 134.925 75.317 133.75 71.8391 132.879L71.8424 132.877L71.5358 132.8L71.16 132.666L70.026 133.995L70.5106 134.244C70.5831 134.289 70.6754 134.334 70.7776 134.382C71.3183 134.622 72.1886 134.866 72.5149 134.986C72.5644 135.005 72.6105 135.023 72.66 135.038C74.005 135.541 75.3698 136.014 76.7444 136.471C77.1862 136.618 77.6279 136.763 78.0697 136.904C81.2509 137.934 84.4881 138.884 87.699 139.871C87.8308 139.912 87.9627 139.953 88.0946 139.994C90.8274 140.836 93.5405 141.707 96.1844 142.674C96.3129 142.719 96.4382 142.766 96.5635 142.812C97.4569 143.142 98.3403 143.482 99.2139 143.837C99.5436 143.971 99.8765 144.109 100.229 144.206C100.434 144.263 100.641 144.308 100.859 144.331C101.383 144.385 101.914 144.315 102.435 144.245C102.603 144.222 102.768 144.199 102.936 144.177C105.751 143.799 108.705 143.416 111.345 142.642C111.375 142.635 111.408 142.626 111.438 142.615C111.922 142.472 112.394 142.316 112.852 142.144C113.762 141.804 114.573 141.349 115.575 141.533C115.595 141.537 115.614 141.542 115.631 141.546C115.651 141.551 115.667 141.555 115.687 141.56L115.68 141.567C116.148 141.766 116.597 141.988 117.022 142.232C117.246 142.359 117.474 142.488 117.688 142.622C117.929 142.771 118.166 142.936 118.469 143.027C118.515 143.04 118.565 143.054 118.614 143.063C119.076 143.154 119.518 143.004 119.916 142.862C120.256 142.742 120.602 142.61 120.958 142.499C121.044 142.472 121.136 142.443 121.232 142.416L119.138 141.537Z" fill="#D65B56"/>
<path d="M67.7283 103.717C67.2503 103.635 66.7294 103.696 66.3338 103.88C65.8163 104.122 65.4437 104.713 65.1108 105.086C64.4943 105.777 63.8548 106.297 64.0361 107.144C64.2339 108.061 63.0372 108.724 61.7087 109.036C61.4582 109.093 61.1285 109.147 60.7659 109.188C60.7659 109.188 60.5813 109.437 60.0934 109.7C58.6759 110.46 55.2639 112.846 52.4091 112.846C52.5343 112.875 52.7882 112.959 52.8772 113.027L54.3343 113.953C54.4299 114.012 55.0595 113.892 55.1716 113.878C55.7914 113.799 56.4078 113.67 56.9715 113.473C57.6078 113.249 58.0792 112.841 58.6923 112.588C61.0329 111.624 63.7592 110.983 64.669 109.05C65.4932 107.296 67.0459 105.79 68.3876 103.834C68.203 103.758 67.936 103.751 67.7283 103.717Z" fill="#D65B56"/>
<path d="M69.2084 105.118C69.2018 105.134 69.1722 105.19 69.1656 105.206C68.9414 105.63 68.559 105.919 68.1568 106.243C67.6986 106.61 67.6393 107.006 67.4612 107.465C66.9931 108.685 66.6536 109.944 66.6767 111.207C66.68 111.309 66.6701 111.409 66.6569 111.508C66.6536 111.54 66.647 111.569 66.6404 111.601C66.6404 111.617 66.6404 111.63 66.6338 111.646C66.5778 112.02 66.5118 112.377 66.8151 112.697C66.8876 112.776 67.2733 113.597 67.1481 113.989C67.1118 114.107 67.0294 114.184 66.8843 114.195C66.8843 114.195 65.9119 114.485 64.8668 115.087C64.6559 115.207 64.4383 115.34 64.2273 115.488C64.0658 115.601 63.9273 115.771 63.8119 115.979C63.713 116.16 63.6306 116.368 63.5581 116.597C63.5482 116.631 63.5383 116.665 63.5284 116.699C63.2383 117.71 63.2021 119.041 63.2054 119.829C63.0867 119.616 62.9284 119.426 62.7142 119.281L57.1858 115.768L54.3343 113.955C55.2573 113.865 56.2265 113.656 57.021 113.321C57.6671 113.05 58.1978 112.667 58.8572 112.4C59.5165 112.133 60.2088 111.913 60.8912 111.68C62.0021 111.3 63.1164 110.761 63.7328 109.998C64.9789 108.457 66.6898 105.254 68.3151 103.902C68.3151 103.9 68.3151 103.9 68.3151 103.9C68.3184 103.898 68.3217 103.893 68.3283 103.889C68.3381 103.88 68.348 103.873 68.3579 103.866C68.3612 103.866 68.3612 103.864 68.3645 103.862C68.3645 103.859 68.3645 103.855 68.3678 103.853L68.4239 103.785C68.9117 103.984 69.337 104.407 69.3304 104.835C69.3271 104.935 69.2447 105.034 69.2084 105.118Z" fill="#EF9292"/>
<path d="M77.6675 94.3318C78.4125 93.9018 79.2465 93.5169 79.6223 92.8379C80.041 92.0773 78.9136 90.6172 77.5257 89.7005C76.1412 88.7792 74.4039 89.8272 73.072 90.8957C72.238 91.5657 72.0929 91.8962 72.6204 92.5979C72.9731 93.0665 73.6358 93.7908 73.8599 94.4609C73.8401 94.4563 73.8237 94.4473 73.8039 94.4428C73.4577 94.3432 73.072 94.2956 72.7061 94.3205C72.3402 94.3522 71.9908 94.4405 71.7402 94.6057C72.4193 94.5446 72.9896 94.685 73.438 94.9091C73.4973 94.9362 73.55 94.9657 73.6028 94.9973C73.6555 95.029 73.7116 95.0562 73.761 95.0924C73.8006 95.1196 73.8401 95.1467 73.883 95.1739C73.8698 95.2124 73.8533 95.2509 73.8303 95.2894C73.7874 95.3686 73.7314 95.4433 73.6522 95.5157C73.2435 95.8937 71.9908 96.0975 71.4172 96.1178C70.7611 96.1405 69.9634 96.0997 69.3436 96.2808C68.7008 96.4687 68.3612 96.8875 67.9129 97.2315C67.3294 97.682 66.5481 97.9831 65.8954 98.386C64.9394 98.9745 64.346 99.7555 64.0954 100.616C63.8251 101.557 64.1581 102.576 63.657 103.486C63.6471 103.506 63.6339 103.529 63.6207 103.549C63.3867 103.943 62.9911 104.28 62.668 104.645C61.9461 105.453 62.1702 106.379 61.8142 107.264C61.6428 107.689 60.9472 108.178 60.5088 108.498C59.9187 108.928 58.6066 109.324 58.1517 109.229C58.6132 109.342 59.7901 109.301 60.7593 109.188C61.1186 109.147 61.4483 109.093 61.6988 109.036C63.0306 108.724 64.224 108.061 64.0262 107.144C63.8449 106.297 64.4844 105.777 65.1009 105.086C65.4339 104.713 65.8031 104.124 66.3239 103.88C66.7195 103.696 67.2305 103.66 67.7118 103.742C67.9195 103.778 68.1239 103.832 68.3118 103.905C68.3151 103.902 68.3184 103.898 68.3217 103.893C68.3381 103.875 68.4272 103.764 68.4469 103.744C68.7634 103.409 69.2381 103.196 69.548 102.85C70.3062 102.006 70.5337 101.01 70.8238 100.052C71.0677 99.2462 71.6644 98.5829 72.6797 98.1528C73.5863 97.768 74.6313 97.5982 75.6302 97.3651C76.6917 97.1184 77.6774 96.7471 78.7158 96.4596C78.5312 96.3487 78.3169 96.2582 78.0598 96.1993C77.6246 96.0952 76.9818 95.9956 76.6752 95.7081C76.8928 95.6787 77.1103 95.6402 77.3147 95.5859C77.9741 95.4048 78.5641 95.1037 78.9202 94.6985C78.2938 94.8864 77.7004 95.0064 77.1071 95.0698C76.9356 95.0856 76.7675 95.0969 76.6027 95.1015C76.8202 94.7846 77.3543 94.5107 77.6675 94.3318Z" fill="#0F0833"/>
<path d="M69.2084 105.118C69.2018 105.134 69.1722 105.19 69.1656 105.206C68.9414 105.63 68.559 105.919 68.1568 106.243C67.6986 106.61 67.6393 107.006 67.4612 107.465C66.9931 108.685 66.6536 109.944 66.6767 111.207C66.68 111.309 66.6701 111.409 66.6569 111.508C66.6536 111.54 66.647 111.569 66.6404 111.601C66.6404 111.617 66.6404 111.63 66.6338 111.646C66.5778 112.02 66.5118 112.377 66.8151 112.697C66.8876 112.776 67.2733 113.597 67.1481 113.989C67.1118 114.107 67.0294 114.184 66.8843 114.195C66.8843 114.195 65.9119 114.485 64.8668 115.087C64.6559 115.207 64.4383 115.34 64.2273 115.488C64.0658 115.601 63.9273 115.771 63.8119 115.979C63.713 116.16 63.6306 116.368 63.5581 116.597C63.5482 116.631 63.5383 116.665 63.5284 116.699C63.2383 117.71 63.2021 119.041 63.2054 119.829C63.0867 119.616 62.9284 119.426 62.7142 119.281L57.1858 115.768L54.3343 113.955C55.2573 113.865 56.2265 113.656 57.021 113.321C57.6671 113.05 58.1978 112.667 58.8572 112.4C59.5165 112.133 60.2088 111.913 60.8912 111.68C62.0021 111.3 63.1164 110.761 63.7328 109.998C64.9789 108.457 66.6898 105.254 68.3151 103.902C68.3151 103.9 68.3151 103.9 68.3151 103.9C68.3184 103.898 68.3217 103.893 68.3283 103.889C68.3381 103.88 68.348 103.873 68.3579 103.866C68.3612 103.866 68.3612 103.864 68.3645 103.862C68.3645 103.859 68.3645 103.855 68.3678 103.853L68.4239 103.785C68.9117 103.984 69.337 104.407 69.3304 104.835C69.3271 104.935 69.2447 105.034 69.2084 105.118Z" fill="#EF9292"/>
<path d="M76.9653 117.484C76.9191 117.534 76.873 117.581 76.8268 117.627C76.1906 118.272 75.4027 118.84 74.3973 119.218C74.2126 119.288 74.0577 119.358 73.9258 119.431C73.8236 119.392 73.7215 119.349 73.6226 119.304C72.7753 118.922 71.994 118.371 71.5391 117.894C71.4732 117.828 71.4172 117.763 71.3677 117.699C69.9568 115.92 68.6348 115.766 67.425 114.695C67.3624 114.643 67.3063 114.591 67.2503 114.539C67.1217 114.424 66.9997 114.311 66.8844 114.195C66.7558 113.93 66.647 113.602 66.5547 113.242C66.5349 113.17 66.5184 113.097 66.502 113.023C66.4921 112.982 66.4822 112.941 66.4756 112.9C66.469 112.88 66.4657 112.86 66.4624 112.839C66.4525 112.792 66.4426 112.744 66.4327 112.697C66.3965 112.506 66.3668 112.309 66.3437 112.11C66.3338 112.015 66.3239 111.922 66.3173 111.827C66.2844 111.431 66.2778 111.037 66.3009 110.666C66.3009 110.668 66.3009 110.671 66.3042 110.673C66.3042 110.677 66.3075 110.684 66.3075 110.689C66.3108 110.705 66.314 110.718 66.3206 110.734C66.3701 110.861 66.4855 111.155 66.6569 111.508C66.6635 111.529 66.6767 111.549 66.6833 111.569C67.0492 112.298 67.6525 113.229 68.4305 113.401C69.7458 113.693 71.938 115.363 73.0588 116.658C73.3358 116.975 73.6127 116.986 74.8851 117.201C75.5115 117.308 76.2203 117.4 76.9653 117.484Z" fill="#0F0833"/>
<path d="M85.4177 105.179C85.0848 105.627 84.7518 105.917 84.3694 106.189C84.3233 106.157 84.2804 106.125 84.2442 106.089C84.2244 106.073 84.2079 106.06 84.1947 106.044C84.165 106.019 84.142 105.994 84.1156 105.969C83.9541 105.806 83.8189 105.623 83.7035 105.433C83.5782 105.227 83.4793 105.014 83.3969 104.821C83.3673 104.749 83.3343 104.681 83.2947 104.613C83.275 104.579 83.2552 104.545 83.2321 104.511C83.2123 104.477 83.186 104.446 83.1629 104.412C83.1365 104.373 83.1101 104.337 83.0805 104.301C83.0508 104.265 83.0211 104.228 82.9882 104.194C82.9618 104.167 82.9387 104.14 82.9123 104.115C82.9057 104.106 82.8959 104.099 82.8893 104.09C82.8563 104.056 82.82 104.022 82.7838 103.988C82.6618 103.88 82.5299 103.776 82.3849 103.678C82.3387 103.647 82.2959 103.617 82.2464 103.592C82.1047 103.502 81.9563 103.42 81.7981 103.346C80.9113 102.925 79.9026 103.074 78.9564 102.746C78.4191 102.556 78.1224 102.121 77.7631 101.781C77.2455 101.286 74.9742 100.186 74.1962 100.715C73.5962 101.123 73.8072 102.18 73.8599 102.764C73.8632 102.8 73.8665 102.834 73.8698 102.87C73.9588 104.371 72.0699 103.681 71.0018 103.988C70.0952 104.253 70.3557 105.202 70.1183 105.734C70.0985 105.777 70.0787 105.817 70.0524 105.86C70.0458 105.874 70.0359 105.888 70.0293 105.901C69.6304 106.619 68.8129 107.162 68.6085 107.952C68.5986 107.993 68.5887 108.031 68.5821 108.072C68.437 108.719 68.5293 109.249 68.7832 109.715C68.7832 109.718 68.7865 109.718 68.7865 109.72C69.2019 110.483 70.0326 111.067 70.9392 111.66C71.4172 111.972 71.9149 112.287 72.3896 112.629C72.3962 112.635 72.4028 112.64 72.4127 112.647C73.4017 113.367 74.4764 113.801 75.828 114.095C75.917 114.116 76.0093 114.134 76.1016 114.154C76.1346 114.161 76.1708 114.166 76.2071 114.175C76.4181 114.215 76.6422 114.256 76.8829 114.295C76.9027 114.299 76.9257 114.304 76.9455 114.306C77.1466 114.34 77.3609 114.372 77.5851 114.403C77.7334 114.426 77.885 114.446 78.0433 114.469C78.0631 114.473 78.0828 114.473 78.0993 114.478C78.1356 114.485 78.1718 114.494 78.2048 114.505C78.4422 114.566 78.6499 114.689 78.8279 114.836C78.6235 115.164 78.4191 115.49 78.2213 115.809C77.8686 116.377 77.4664 116.952 76.9653 117.484C76.9191 117.534 76.873 117.581 76.8268 117.627C76.095 117.559 75.4126 117.434 74.806 117.332C73.9259 117.183 72.894 116.968 72.2281 116.527C71.5589 116.081 71.0512 115.524 70.4842 115.019C69.9864 114.575 69.4557 114.086 68.7436 113.794C68.6711 113.763 68.5953 113.738 68.5195 113.713C67.9722 113.532 67.6525 113.337 67.3624 112.97C67.1151 112.656 66.9338 112.316 66.7789 111.977C66.7294 111.868 66.68 111.757 66.6338 111.646C66.6305 111.637 66.6239 111.626 66.6206 111.615C66.5019 111.325 66.3998 111.031 66.3206 110.734C66.314 110.718 66.3107 110.705 66.3075 110.689C66.3075 110.684 66.3042 110.677 66.3042 110.673C66.3009 110.671 66.3009 110.668 66.3009 110.666C66.3239 110.329 66.3734 110.012 66.4525 109.733C66.4657 109.688 66.4822 109.647 66.4954 109.604C66.5184 109.543 66.5349 109.484 66.5481 109.423C66.5778 109.315 66.6008 109.206 66.6173 109.097C66.6239 109.061 66.6305 109.025 66.6338 108.989C66.7723 107.988 66.5745 107.006 67.7217 106.209C67.7382 106.195 67.758 106.184 67.7777 106.171C67.781 106.168 67.7876 106.164 67.7909 106.159C68.2689 105.847 68.8722 105.6 69.0865 105.179C69.0931 105.163 69.0997 105.147 69.1063 105.132C69.1425 105.048 69.1623 104.957 69.1656 104.858C69.1722 104.437 68.8129 104.106 68.3348 103.909C68.3316 103.907 68.325 103.905 68.3217 103.905V103.902C68.3184 103.902 68.3184 103.9 68.3151 103.9C68.3184 103.898 68.3217 103.893 68.3283 103.889C68.348 103.871 68.3645 103.853 68.3777 103.832C68.4206 103.785 68.4601 103.737 68.503 103.69C68.5656 103.624 68.6282 103.561 68.6975 103.497C68.7469 103.456 68.7931 103.416 68.8392 103.373C68.8854 103.332 68.9315 103.291 68.9777 103.25C69.0205 103.207 69.0634 103.167 69.103 103.124C69.3568 102.85 69.5843 102.562 69.7788 102.266C70.1645 101.673 70.4249 101.034 70.4644 100.385C70.5831 98.5218 73.4215 97.0255 75.3005 97.0255C76.128 97.0255 77.4565 96.8105 78.7257 96.4574C79.1081 96.6815 79.3685 96.9893 79.6619 97.313C80.2058 97.9151 81.03 98.2547 81.9497 98.4765C83.5189 98.8568 84.7947 99.0651 85.8331 100.014C85.8628 100.041 85.8924 100.068 85.9221 100.097C86.0144 100.278 86.1001 100.462 86.1825 100.645C86.8221 102.08 86.4067 103.855 85.4177 105.179Z" fill="#1E1356"/>
<path d="M78.5905 117.647C78.2839 117.937 77.951 118.211 77.6312 118.498C77.351 118.754 76.7082 119.456 76.3192 119.621C75.6467 119.902 74.7665 119.764 73.9259 119.431C74.0577 119.358 74.2127 119.288 74.3973 119.218C75.4027 118.84 76.1906 118.272 76.8269 117.627C77.3906 117.679 77.984 117.699 78.5905 117.647Z" fill="#3333BC"/>
<path d="M79.352 115.408C79.3257 115.374 79.3026 115.338 79.2729 115.304C79.1542 115.144 79.0026 114.976 78.8279 114.836C78.6235 115.164 78.4191 115.49 78.2213 115.809C77.8686 116.377 77.4664 116.952 76.9653 117.484C76.9191 117.534 76.873 117.581 76.8268 117.627C77.3906 117.679 77.9839 117.699 78.5905 117.647C78.7455 117.502 78.8971 117.355 79.0323 117.199C79.53 116.642 79.7839 116.022 79.352 115.408Z" fill="#514ED8"/>
<path d="M89.7593 105.313C89.756 105.367 89.7297 105.426 89.7099 105.471C89.667 105.564 89.6011 105.65 89.5187 105.729C89.3505 105.892 89.1231 106.026 88.8791 106.137C88.7176 106.209 88.5462 106.272 88.3682 106.322C87.6264 106.535 86.7627 106.875 85.9386 106.807C85.7606 106.793 85.5891 106.761 85.4177 106.714C85.4111 106.712 85.4045 106.709 85.3979 106.707C85.098 106.607 84.821 106.463 84.5672 106.32C84.5244 106.297 84.4848 106.272 84.4452 106.245L84.3859 106.205C84.3793 106.2 84.3727 106.195 84.3694 106.191C84.7518 105.919 85.0848 105.63 85.4177 105.181C86.4067 103.857 86.8221 102.082 86.1825 100.647C86.1001 100.464 86.0144 100.281 85.9221 100.1C86.354 100.505 86.7166 100.951 86.9869 101.424C87.2869 101.942 87.4715 102.492 87.5111 103.049C87.5111 103.063 87.5144 103.078 87.5144 103.092C87.5374 103.54 87.5473 104.036 87.8869 104.425C88.233 104.821 88.8561 105.005 89.4791 105.118C89.5582 105.132 89.6505 105.145 89.7066 105.19C89.7527 105.22 89.7626 105.265 89.7593 105.313Z" fill="#514ED8"/>
<path d="M85.4177 106.712C85.4144 106.721 85.4078 106.73 85.4012 106.739C85.1474 107.133 84.587 107.927 83.9969 108.355C83.1925 108.934 83.7958 110.551 83.7793 111.341C83.753 112.583 82.4178 111.671 81.4058 112.486C80.5816 113.149 79.6092 114.734 79.2729 115.304C79.1542 115.144 79.0026 114.976 78.8279 114.836C79.619 113.559 80.397 112.226 80.7695 110.899C81.0695 109.824 81.0333 108.747 82.0849 107.843C83.0837 106.985 83.7859 106.607 84.3694 106.189C84.3727 106.193 84.3793 106.198 84.3859 106.202L84.4452 106.243C84.7123 106.435 85.0419 106.603 85.3979 106.705C85.4045 106.707 85.4111 106.709 85.4177 106.712Z" fill="#FFD8D7"/>
</g>
<defs>
<linearGradient id="paint0_linear" x1="279" y1="132.553" x2="438.3" y2="132" gradientUnits="userSpaceOnUse">
<stop offset="0.2" stop-color="#71FBF6"/>
<stop offset="0.85" stop-color="#3200FF"/>
</linearGradient>
<linearGradient id="paint1_linear" x1="323" y1="155.301" x2="323" y2="-4" gradientUnits="userSpaceOnUse">
<stop offset="0.2" stop-color="#71FBF6"/>
<stop offset="0.85" stop-color="#3200FF"/>
</linearGradient>
<clipPath id="clip0">
<rect width="400" height="218.1" fill="white"/>
</clipPath>
</defs>
</svg>
