<?xml version="1.0" encoding="utf-8"?>
<!-- Generator: Adobe Illustrator 23.0.0, SVG Export Plug-In . SVG Version: 6.00 Build 0)  -->
<svg version="1.1" id="Layer_1" xmlns="http://www.w3.org/2000/svg" xmlns:xlink="http://www.w3.org/1999/xlink" x="0px" y="0px"
	 viewBox="0 0 151.6 186.5" style="enable-background:new 0 0 151.6 186.5;" xml:space="preserve">
<style type="text/css">
	.st0{clip-path:url(#SVGID_2_);fill:#4E4F61;}
	.st1{fill:#4E4F61;}
</style>
<g>
	<g>
		<defs>
			<rect id="SVGID_1_" x="3.1" y="2.3" width="145.4" height="183"/>
		</defs>
		<clipPath id="SVGID_2_">
			<use xlink:href="#SVGID_1_"  style="overflow:visible;"/>
		</clipPath>
		<path class="st0" d="M102,3.3c-0.8-0.9-2-1.4-3.2-1.4H27.5c-13.2,0-24,10.8-24,24v135c0,13.2,10.9,24,24,24h96.9
			c13.2,0,24-10.8,24-24V53.7c0-1.1-0.5-2.3-1.3-3.1L102,3.3z M103.3,17.5l30.2,31.7h-19.6c-5.8,0-10.6-4.7-10.6-10.5V17.5z
			 M124.4,176.1H27.5c-8.3,0-15.2-6.9-15.2-15.2v-135c0-8.3,6.9-15.2,15.2-15.2h67v27.9c0,10.7,8.7,19.4,19.4,19.4h25.7v102.9
			C139.6,169.2,132.7,176.1,124.4,176.1L124.4,176.1z M124.4,176.1"/>
	</g>
	<path class="st1" d="M112.3,145.6H39.5c-2.4,0-4.4,2-4.4,4.4c0,2.4,2,4.4,4.4,4.4h72.8c2.4,0,4.4-2,4.4-4.4
		C116.7,147.6,114.8,145.6,112.3,145.6L112.3,145.6z M112.3,145.6"/>
	<path class="st1" d="M72.7,129.7c0.8,0.9,2,1.4,3.2,1.4s2.4-0.5,3.2-1.4l25.9-27.8c1.7-1.8,1.5-4.6-0.2-6.2
		c-1.8-1.7-4.6-1.5-6.2,0.2l-18.3,19.6V67.2c0-2.4-2-4.4-4.4-4.4c-2.4,0-4.4,2-4.4,4.4v48.3L53.3,95.9c-1.7-1.8-4.5-1.9-6.2-0.2
		c-1.8,1.7-1.9,4.5-0.2,6.2L72.7,129.7z M72.7,129.7"/>
</g>
</svg>
